<svg width="419" height="233" viewBox="0 0 419 233" fill="none" xmlns="http://www.w3.org/2000/svg">
<path d="M372.881 142.51V223.582" stroke="#353031" stroke-width="1.8641" stroke-miterlimit="10" stroke-linecap="round" stroke-linejoin="round"/>
<path d="M304.454 142.51V223.582" stroke="#353031" stroke-width="1.8641" stroke-miterlimit="10" stroke-linecap="round" stroke-linejoin="round"/>
<path d="M245.685 142.51V223.582" stroke="#353031" stroke-width="1.8641" stroke-miterlimit="10" stroke-linecap="round" stroke-linejoin="round"/>
<path d="M177.258 142.51V223.582" stroke="#353031" stroke-width="1.8641" stroke-miterlimit="10" stroke-linecap="round" stroke-linejoin="round"/>
<path d="M390.238 129.123H137.431V145.394H390.238V129.123Z" fill="#695D61"/>
<path d="M390.24 129.123H283.104V145.394H390.24V129.123Z" fill="#353031"/>
<path d="M304.949 94.2169L248.429 72.3585C246.918 49.8457 256.512 27.3739 269.369 14.301C272.055 11.5701 276.02 10.5299 279.718 11.5328L308.897 19.444C312.668 20.4656 315.602 23.4649 316.486 27.2695C323.083 55.6859 304.949 94.2169 304.949 94.2169Z" fill="#43BF91"/>
<path d="M277.203 17.5444L307.741 25.8247" stroke="#008C56" stroke-width="5.5923" stroke-miterlimit="10" stroke-linecap="round" stroke-linejoin="round"/>
<path d="M368.976 45.3311H216.18V129.124H368.976V45.3311Z" fill="#D27400"/>
<path d="M161.002 45.3312L126.928 0H198.884L232.958 45.3312H161.002Z" fill="#F09D45"/>
<path d="M173.066 55.7312C173.066 55.7312 166.624 29.8724 179.945 25.9876C193.267 22.1028 195.844 37.9943 215.924 22.6676C236.002 7.34098 253.873 21.0608 260.09 30.9051C266.307 40.7513 268.637 55.7312 268.637 55.7312H173.066Z" fill="#D5004F"/>
<path d="M296.492 45.3311H160.489V129.124H296.492V45.3311Z" fill="#F09D45"/>
<path d="M272.151 76.5737H183.254V97.8804H272.151V76.5737Z" fill="#ED8846"/>
<path d="M297.021 45.3309L346.721 16.4746H418.677L368.977 45.3309H297.021Z" fill="#D27400"/>
<path d="M368.976 45.3311H312.577" stroke="#A34700" stroke-width="1.8641" stroke-miterlimit="10"/>
<path d="M66.2315 121.629L118.052 97.8486H51.8202L0 121.629H66.2315Z" fill="#D27400"/>
<path d="M195.121 121.629H42.3242V232.998H195.121V121.629Z" fill="#D27400"/>
<path d="M152.797 121.629H0V232.998H152.797V121.629Z" fill="#F09D45"/>
<path d="M152.798 121.629L118.724 76.2979H161.054L195.128 121.629H152.798Z" fill="#F09D45"/>
<path d="M161.054 76.2979L195.122 121.629V233" stroke="#D27426" stroke-width="1.8641" stroke-miterlimit="10"/>
<path d="M119.481 145.665L24.8184 148.901L28.5466 203.402L113.633 207.656L119.481 145.665Z" fill="white"/>
<path d="M119.148 188.486L87.2061 204.848L90.8077 211.879L122.749 195.517L119.148 188.486Z" fill="#E3802B"/>
<path d="M125.224 160.96L100.367 135.073L94.6689 140.544L119.526 166.431L125.224 160.96Z" fill="#E3802B"/>
<path d="M22.1598 165.515L51.4492 144.774L46.8838 138.327L17.5944 159.068L22.1598 165.515Z" fill="#E3802B"/>
<path d="M19.0546 192.201L47.3428 214.291L52.2053 208.064L23.9171 185.974L19.0546 192.201Z" fill="#E3802B"/>
</svg>
