<svg width="20" height="20" viewBox="0 0 20 20" fill="none" xmlns="http://www.w3.org/2000/svg">
<path d="M18.3333 9.63926C18.3333 14.0419 14.6018 17.6115 9.99996 17.6115C9.45887 17.6122 8.91933 17.5622 8.38781 17.4624C8.00523 17.3905 7.81394 17.3546 7.6804 17.375C7.54686 17.3954 7.35761 17.496 6.97911 17.6973C5.90841 18.2667 4.65992 18.4678 3.45922 18.2445C3.91558 17.6832 4.22725 17.0097 4.36477 16.2876C4.44811 15.846 4.24163 15.417 3.93237 15.1029C2.52774 13.6766 1.66663 11.7546 1.66663 9.63926C1.66663 5.23663 5.39811 1.66699 9.99996 1.66699C14.6018 1.66699 18.3333 5.23663 18.3333 9.63926Z" stroke="white" stroke-width="1.5" stroke-linejoin="round"/>
<path d="M9.99622 10H10.0037M13.3258 10H13.3333M6.66663 10H6.6741" stroke="white" stroke-width="2" stroke-linecap="round" stroke-linejoin="round"/>
</svg>
