<svg width="65" height="67" viewBox="0 0 65 67" fill="none" xmlns="http://www.w3.org/2000/svg">
<path d="M35.5336 29.5927C34.6317 28.1665 33.7943 26.8248 32.9368 25.4964C32.7746 25.2454 32.8657 25.0654 32.9835 24.8589C34.7273 21.8089 36.4777 18.7611 38.206 15.7022C38.4015 15.3579 38.668 15.3912 38.959 15.3934C42.7288 15.4112 46.5007 15.429 50.2704 15.4512C53.5959 15.4712 56.9213 15.4956 60.2468 15.5178C60.9554 15.5223 60.9665 15.5445 60.6244 16.1443C56.3749 23.6149 52.1253 31.0855 47.8758 38.556C45.6788 42.4191 43.4818 46.2843 41.2848 50.1473C40.9272 50.776 40.925 50.7738 40.5162 50.1496C39.8676 49.1588 39.2389 48.1525 38.557 47.184C38.3059 46.8263 38.3348 46.5709 38.5303 46.2155C41.3648 41.0596 44.1882 35.897 47.0116 30.7345C48.7976 27.4712 50.5681 24.1991 52.3741 20.947C52.6784 20.3983 52.5163 20.3338 51.9965 20.3427C51.299 20.3538 50.597 20.3294 49.9017 20.2805C49.5196 20.2539 49.3374 20.4249 49.162 20.7337C48.0757 22.6486 46.9672 24.5523 45.8721 26.4627C44.3371 29.1373 42.8065 31.8141 41.2737 34.4909C39.7521 37.1477 38.2326 39.8045 36.7087 42.4591C36.3555 43.0744 36.3467 43.0722 35.9646 42.4924C35.3115 41.5039 34.6784 40.502 34.0053 39.5268C33.7565 39.1669 33.7387 38.8759 33.9542 38.4916C35.4181 35.8815 36.8665 33.2624 38.3171 30.6456C40.1097 27.4113 41.8957 24.1724 43.7017 20.9447C43.9661 20.4716 43.8906 20.3427 43.3508 20.3472C42.6954 20.3538 42.0379 20.2961 41.3848 20.2383C41.0205 20.2072 40.8161 20.3272 40.6318 20.656C39.079 23.426 37.5062 26.185 35.9357 28.9462C35.838 29.124 35.7202 29.2972 35.5336 29.5927Z" fill="black"/>
<path d="M13.2085 15.693C13.3395 15.4397 13.5795 15.5352 13.7727 15.5352C21.27 15.5308 28.7672 15.533 36.2645 15.5241C36.7598 15.5241 36.922 15.5886 36.6443 16.1061C35.8135 17.65 35.0205 19.2139 34.2185 20.7733C34.0342 21.1332 33.7765 21.302 33.3566 21.2487C32.8746 21.1887 32.3881 21.1598 31.9038 21.1443C31.6062 21.1354 31.484 20.9444 31.4262 20.7178C31.3218 20.2979 31.053 20.2313 30.6687 20.2335C27.7454 20.2446 24.8242 20.2468 21.9008 20.2313C21.3788 20.2291 21.2411 20.3201 21.5454 20.8177C22.4962 22.3661 23.4225 23.9277 24.3466 25.4916C24.5265 25.7959 24.7798 25.8426 25.0952 25.8248C27.1034 25.7048 29.116 25.7293 31.1263 25.6848C31.6128 25.6737 31.9016 25.807 32.1326 26.238C32.7124 27.3176 33.3366 28.375 33.9342 29.4457C34.012 29.5856 34.1941 29.7256 34.1008 29.8989C33.9897 30.1032 33.7587 30.0099 33.5832 29.9988C31.4907 29.8567 29.3937 29.9233 27.2989 29.8989C27.2589 29.8989 27.2189 29.9211 27.1078 29.9522C27.6854 30.9385 28.2474 31.9159 28.825 32.8822C30.5466 35.7656 32.2748 38.6468 33.9964 41.5279C35.969 44.8289 37.935 48.1344 39.9231 51.4265C40.143 51.7886 40.1497 52.0352 39.8987 52.3884C39.1923 53.3902 38.537 54.4276 37.8528 55.445C37.4929 55.9804 37.4107 55.9826 37.0842 55.4362C35.0805 52.0796 33.0812 48.7186 31.0819 45.3598C28.9538 41.7856 26.8257 38.2114 24.6976 34.6393C21.9808 30.0832 19.264 25.5316 16.5495 20.9755C16.414 20.7467 16.3096 20.4956 15.9875 20.7467C15.9341 20.2313 15.6676 19.8159 15.4077 19.3827C14.6679 18.1565 13.9682 16.9081 13.2085 15.693Z" fill="black"/>
<path d="M13.2085 15.6934C13.4839 15.7311 13.5639 15.9777 13.6794 16.1665C14.4369 17.4127 15.17 18.6723 15.9408 19.9096C16.1274 20.2073 16.0563 20.4627 15.9897 20.7448C15.6543 21.278 15.4121 21.8644 15.0123 22.3665C14.6746 22.7885 14.7613 23.2128 15.0567 23.6882C19.3374 30.619 23.598 37.5631 27.8609 44.5028C28.8694 46.1422 29.8668 47.7905 30.8931 49.4188C31.1686 49.8586 31.1041 49.9608 30.591 49.9941C29.3448 50.0741 28.103 50.2007 26.8613 50.334C26.4925 50.374 26.2948 50.2584 26.0971 49.9452C21.8475 43.1699 17.5891 36.4035 13.3284 29.6349C13.0352 29.1706 12.7176 28.7197 12.4332 28.2487C12.2644 27.9711 12.1422 27.9933 11.9889 28.2487C11.5824 28.9174 11.1826 29.5927 10.7583 30.248C10.565 30.5457 10.7005 30.7612 10.8449 31.0011C14.3547 36.8878 17.8623 42.7768 21.3699 48.6635C21.4344 48.7701 21.4877 48.8812 21.541 48.9789C21.4344 49.1544 21.3033 49.0922 21.19 49.0633C19.7328 48.7035 18.28 48.3281 16.8205 47.986C16.4184 47.8927 16.1585 47.7016 15.9364 47.3506C13.8038 43.9941 11.6557 40.6486 9.51207 37.2988C8.15701 35.1818 6.81306 33.0581 5.44689 30.95C5.22475 30.6079 5.19365 30.3524 5.40024 29.977C7.25512 26.6071 9.08334 23.2239 10.9227 19.8474C11.6802 18.4612 12.4465 17.0795 13.2085 15.6934Z" fill="black"/>
<path d="M33.7631 58.5575C27.4988 58.4664 21.8409 56.3671 17.0049 52.1109C16.545 51.7066 16.1163 51.2646 15.6542 50.8603C15.3766 50.6181 15.3566 50.4293 15.5898 50.1228C16.2962 49.192 16.2651 49.1964 17.0959 49.9984C21.01 53.7748 25.6306 56.1272 31.0575 56.7359C38.0838 57.5223 44.3348 55.6563 49.7151 51.038C53.8069 47.526 56.3704 43.0631 57.4878 37.8206C58.3208 33.9132 58.1475 29.9968 57.0168 26.1449C56.9035 25.7584 57.57 24.4877 57.9498 24.3767C58.2364 24.2923 58.1897 24.5566 58.2364 24.6832C58.7251 26.0627 59.0872 27.4778 59.3027 28.9217C59.7292 31.7651 59.7247 34.6107 59.2071 37.4474C58.554 41.0128 57.2212 44.3005 55.1953 47.3038C53.1294 50.3649 50.5126 52.8551 47.367 54.7833C44.1282 56.767 40.6184 57.9732 36.8376 58.4042C35.869 58.513 34.8961 58.4708 33.7631 58.5575Z" fill="black"/>
<path d="M34.0231 7.26758C40.4763 7.37643 46.1475 9.51342 51.0079 13.7674C51.2145 13.9496 51.6166 14.1206 51.4989 14.4183C51.4056 14.6515 50.9991 14.4827 50.7369 14.5227C49.875 14.6582 49.1953 14.3783 48.4911 13.8274C45.0612 11.1528 41.1493 9.56007 36.8332 9.09357C30.9287 8.45603 25.4462 9.70002 20.5014 13.0788C19.9083 13.4853 19.2996 13.8696 18.7731 14.3605C18.4244 14.6849 18.1111 14.4894 17.7824 14.3405C16.8094 13.8985 16.8005 13.8896 17.6091 13.2165C21.4632 10.0066 25.8861 8.1095 30.8642 7.50083C31.3907 7.43641 31.915 7.39865 32.4437 7.37643C32.9679 7.35866 33.4944 7.30534 34.0231 7.26758Z" fill="black"/>
<path d="M25.9149 59.7746C25.5862 59.6702 25.4151 59.8013 25.2996 60.1189C24.9864 60.9719 24.6598 61.8205 24.3177 62.6624C24.0045 63.431 23.2781 63.5732 22.6428 63.0245C22.4495 62.8557 22.4073 62.7091 22.5317 62.4803C22.8094 61.9805 23.0804 61.4806 23.3203 60.9631C23.407 60.7765 23.7557 60.5499 23.367 60.3322C23.0182 60.1345 22.8005 60.2655 22.6339 60.6343C22.4184 61.1141 22.1741 61.5917 21.8808 62.0249C21.6054 62.4314 20.9923 62.4159 20.6058 61.9938C20.2103 61.5606 20.8057 61.5584 20.9412 61.3962C21.4055 60.8498 21.7342 60.2655 21.5165 59.548C21.3011 58.8416 20.7524 58.4706 20.0304 58.3263C19.3973 58.2019 18.7753 58.2107 17.9423 58.4307C18.4354 57.7242 18.8197 57.1756 19.2063 56.6269C19.3373 56.4381 19.5373 56.267 19.1952 56.0671C18.9264 55.9116 18.7531 55.9227 18.5665 56.2004C18.12 56.8668 17.6402 57.5132 17.1804 58.173C16.4762 59.1793 16.4784 59.1793 15.5365 58.3507C14.5391 57.4799 14.5391 57.4799 15.5054 56.5891C16.2318 55.916 16.2363 55.8716 15.5898 55.1407C14.939 54.401 14.117 54.27 13.4684 54.7987C12.6665 55.4562 12.6065 56.1159 13.2751 56.9867C13.364 57.1 13.5106 57.2 13.4106 57.3666C13.3195 57.5221 13.1485 57.4666 13.0063 57.4732C12.471 57.5043 12.2555 56.9845 11.8556 56.769C11.6157 57.3222 11.6157 57.3222 11.769 57.5488C12.2266 58.2241 13.0352 58.4684 13.7772 58.1063C14.0659 57.9642 14.2192 58.0175 14.4302 58.2241C15.2277 59.0149 16.1163 59.6969 17.0115 60.3744C18.7709 61.705 20.6924 62.7646 22.6228 63.8109C23.7757 64.4396 24.5399 64.133 25.0286 62.9157C25.3662 62.0738 25.6972 61.2274 26.026 60.3788C26.1104 60.1656 26.3281 59.9079 25.9149 59.7746ZM14.6324 56.3692C14.4014 56.4958 14.2903 56.9512 13.9371 56.7157C13.6505 56.5269 13.4617 56.2004 13.5928 55.8338C13.7194 55.4695 14.006 55.2585 14.388 55.2163C14.7146 55.2429 14.9878 55.3518 15.1255 55.6472C15.2699 55.9493 14.939 56.0226 14.819 56.1981C14.7701 56.267 14.7057 56.3292 14.6324 56.3692ZM20.1637 60.9742C19.7972 61.2629 19.4084 61.1585 19.053 60.9053C18.551 60.5543 18.0489 60.2011 17.5535 59.8412C17.4425 59.7635 17.2492 59.7235 17.2914 59.5369C17.3292 59.3725 17.5113 59.3503 17.6424 59.297C18.1755 59.0838 18.7331 58.9616 19.4684 58.946C19.4773 58.946 19.6439 58.9594 19.8127 58.9793C20.2614 59.0349 20.6657 59.2126 20.779 59.6724C20.9145 60.2367 20.5769 60.6498 20.1637 60.9742Z" fill="black"/>
<path d="M48.4289 60.4835C47.898 60.1503 46.9916 60.3235 46.383 60.8767C45.912 61.3054 45.8387 61.9696 46.1919 62.6205C46.5718 63.3246 46.5718 63.3247 45.8032 63.5979C45.6455 63.6556 45.4833 63.7023 45.3256 63.7667C45.0679 63.8711 44.9235 63.7867 44.8657 63.5201C44.6747 62.6604 44.1016 62.2339 43.2619 62.1406C42.8776 62.0984 42.8487 61.9518 43.0153 61.6475C43.2152 61.2743 43.4018 60.8944 43.564 60.5035C43.6306 60.3435 43.9239 60.1103 43.5907 59.9881C43.3618 59.9059 43.0086 59.8815 42.8731 60.2102C42.5066 61.1188 41.909 61.9296 41.6758 62.9204C42.0179 62.9937 42.3245 62.8959 42.6332 62.8737C43.0664 62.8404 43.4862 62.8848 43.8328 63.1758C44.2504 63.5246 44.2682 64.0821 43.8706 64.2154C42.7465 64.5931 41.5892 64.8308 40.4318 65.0818C39.9653 65.184 39.7987 64.9685 39.7387 64.522C39.5966 63.4735 39.41 62.4316 39.2478 61.3876C39.21 61.1566 39.2367 60.8989 38.8591 60.9811C38.5569 61.0477 38.4259 61.1832 38.4792 61.5053C38.6769 62.6738 38.8368 63.8467 39.0523 65.0129C39.1656 65.6327 39.5966 65.8926 40.2208 65.7904C40.7428 65.7038 41.2626 65.5994 41.7802 65.4994C43.9816 65.0773 46.0475 64.2754 48.0579 63.3158C48.5155 63.0981 48.9842 62.8648 49.1553 62.3228C49.3419 61.7252 48.982 60.83 48.4289 60.4835ZM47.5914 62.7027C47.1338 62.7582 46.7406 62.3183 46.745 61.7985C46.7495 61.2632 47.1116 61.061 47.5692 61.0188C48.0224 60.9766 48.4244 61.4254 48.4378 62.0029C48.4044 62.4583 48.0379 62.6471 47.5914 62.7027Z" fill="black"/>
<path d="M64.2164 44.3626C64.1787 44.5492 64.1987 44.7757 64.0965 44.9135C63.3612 45.9131 63.2946 47.186 62.6881 48.25C62.326 48.8876 62.3083 49.7073 61.8351 50.3315C61.6574 50.567 61.5352 50.8491 61.3353 51.0646C60.8754 51.5599 60.5533 51.9731 61.2331 52.6062C61.6241 52.9705 61.3775 54.0324 60.9599 54.4255C60.7622 54.6144 60.5 54.6099 60.3157 54.49C60.1202 54.3633 60.3379 54.1967 60.4089 54.0657C60.8044 53.3459 60.7377 52.9639 60.0735 52.504C59.5693 52.1553 59.0494 51.8243 58.5185 51.5199C58.1942 51.3333 58.1964 51.1312 58.3608 50.8468C58.5674 50.4892 58.7473 50.7558 58.925 50.8624C60.1846 51.6266 60.189 51.631 60.991 50.3892C61.2309 50.016 61.4486 49.6273 61.6596 49.2363C61.9262 48.7454 61.7796 48.3789 61.2775 48.159C60.9665 48.0234 60.6511 47.8968 60.329 47.7946C60.0002 47.688 59.918 47.5236 60.0269 47.1793C60.1535 46.7728 60.3712 46.9883 60.5622 47.0549C60.9221 47.1815 61.2731 47.3259 61.6263 47.4703C61.8928 47.5792 62.1594 47.9057 62.3705 47.3792C62.5504 46.9305 62.9014 46.4729 62.3282 46.0908C61.9995 45.8709 61.5974 45.7665 61.2309 45.6021C60.911 45.4599 60.3623 45.4511 60.6133 44.8868C60.8599 44.3292 61.2087 44.8491 61.4952 44.9068C61.8218 44.9735 62.1505 45.1045 62.4393 45.2733C62.8303 45.5021 63.1057 45.4799 63.3057 45.049C63.4989 44.6336 63.6078 44.2115 63.1013 43.956C62.6126 43.7117 62.095 43.5207 61.5819 43.3274C61.2864 43.2163 61.1176 43.0919 61.2398 42.7298C61.3775 42.3211 61.6063 42.4988 61.8351 42.5943C62.4016 42.8276 62.9769 43.043 63.5367 43.2963C63.9899 43.4962 64.2364 43.8472 64.2164 44.3626Z" fill="black"/>
<path d="M58.945 54.286C58.2408 53.3397 57.3634 53.0465 56.2149 53.4352C55.9128 53.5374 55.7928 53.5041 55.7728 53.1664C55.7529 52.7021 55.7018 52.2379 55.6529 51.7758C55.6373 51.6448 55.7195 51.4559 55.5263 51.3915C55.3686 51.3426 55.2619 51.4915 55.1331 51.5559C54.9021 51.6692 54.8865 51.8625 54.9154 52.0913C55.0065 52.8066 55.0975 53.5196 55.1642 54.2349C55.2131 54.7258 55.3397 54.9369 55.8217 54.5526C56.2016 54.2505 56.617 53.9906 57.139 54.0039C57.5189 54.0128 57.8054 54.2171 57.9787 54.497C58.1475 54.7725 57.8099 54.948 57.661 55.1146C56.9968 55.8543 56.286 56.5541 55.6285 57.296C55.2975 57.6692 55.0953 57.5604 54.8443 57.236C54.5311 56.834 54.1956 56.4541 53.8647 56.0676C53.758 55.9432 53.6625 55.7943 53.4581 55.8032C52.8761 55.821 51.8698 56.9162 51.8765 57.5337C51.8876 58.6466 53.0761 59.3797 54.0379 58.8799C54.3822 58.7022 54.6377 58.1624 55.1575 58.5733C55.182 58.5911 55.3263 58.4711 55.4019 58.4023C56.6836 57.2871 57.7766 55.9898 58.8961 54.7214C59.0139 54.5881 59.0894 54.4793 58.945 54.286ZM53.4737 58.2757C53.0072 58.2734 52.7384 57.9602 52.6895 57.5204C52.6429 57.105 52.9628 56.8895 53.2427 56.7096C53.407 56.6985 54.2356 57.547 54.1979 57.6959C54.109 58.058 53.838 58.2801 53.4737 58.2757Z" fill="black"/>
<path d="M11.9534 53.8301C12.5376 53.7479 12.9175 53.2481 13.404 52.9349C13.5284 52.8549 13.6283 52.7328 13.7616 52.6772C14.0215 52.5706 14.1459 52.7972 14.2703 52.9527C14.428 53.1482 14.2436 53.2481 14.1104 53.3503C13.7105 53.6591 13.3195 53.9812 12.9086 54.2766C12.2177 54.7742 11.6202 54.7542 10.9404 54.2189C10.3429 53.7502 9.92967 53.1393 9.65866 52.4395C9.52982 52.1041 9.41875 51.9975 9.02556 52.113C8.22363 52.3485 7.51056 51.9553 7.14181 51.2178C6.99075 50.9157 7.10849 50.6891 7.3173 50.5625C7.56387 50.4136 7.60386 50.7224 7.69938 50.8579C8.12589 51.4577 8.51686 51.571 9.15885 51.2133C9.69421 50.9157 10.214 50.5913 10.7249 50.2537C11.0293 50.0537 11.2492 50.0404 11.4536 50.3803C11.6935 50.7779 11.3092 50.7912 11.1337 50.9001C9.96077 51.6176 9.90524 51.8775 10.7472 53.0216C11.0382 53.4192 11.3691 53.7746 11.9534 53.8301Z" fill="black"/>
<path d="M35.3981 63.3865C35.3981 63.873 35.4226 64.3595 35.3915 64.8437C35.3604 65.3569 35.5381 65.559 36.0756 65.5413C36.9287 65.5124 37.2197 65.3791 37.2174 64.7993C37.2152 64.2951 37.1419 63.7908 37.0775 63.2888C37.0353 62.9489 37.0797 62.7045 37.4929 62.6734C37.9283 62.6401 37.815 62.9733 37.8439 63.1955C37.9128 63.7397 37.9861 64.2862 38.0083 64.8326C38.0394 65.5346 37.7239 65.93 37.0508 66.1366C36.511 66.3032 35.9579 66.2588 35.4159 66.2032C34.9027 66.1499 34.6428 65.7834 34.6295 65.2814C34.5984 64.0996 34.5962 62.9156 34.5695 61.7316C34.5629 61.405 34.705 61.2939 35.0205 61.2739C35.4203 61.2495 35.3404 61.5316 35.347 61.7382C35.3603 62.2869 35.3515 62.8356 35.3515 63.3843C35.3692 63.3865 35.3848 63.3865 35.3981 63.3865Z" fill="black"/>
<path d="M30.069 62.2846C30.0023 62.7889 29.9379 63.2843 29.8668 63.7819C29.7269 64.7659 29.9668 65.0991 30.9353 65.2569C32.899 65.579 32.899 65.579 33.1656 63.6041C33.1878 63.4375 33.2256 63.2709 33.2456 63.1021C33.2833 62.7955 33.5143 62.8289 33.7232 62.8244C33.9964 62.82 34.0275 62.9888 33.9986 63.2065C33.9142 63.8352 33.8609 64.4705 33.7409 65.0925C33.6077 65.7833 33.1412 66.1588 32.4214 66.1121C31.6861 66.0632 30.9464 65.9721 30.2267 65.8122C29.4092 65.6301 28.9871 65.0658 29.0738 64.2328C29.1471 63.5242 28.9338 62.6445 29.8868 62.2868C29.9268 62.2735 29.9712 62.2846 30.069 62.2846Z" fill="black"/>
<path d="M3.58535 23.9479C3.18105 23.7435 2.75454 23.6347 2.48797 23.6302C1.48168 23.6191 1.12181 23.8635 0.828582 24.6499C0.710848 24.9653 0.630877 25.2963 0.508699 25.6117C0.382079 25.9316 0.510922 26.0782 0.808591 26.1693C1.43725 26.3581 2.06146 26.5558 2.68346 26.758C4.02074 27.1889 4.02074 27.1912 4.41393 25.8339C4.66495 24.9653 4.39616 24.3633 3.58535 23.9479ZM2.85228 26.0516C2.5324 25.9472 2.21252 25.8405 1.89041 25.7361C1.21289 25.514 1.11514 25.2563 1.5261 24.6743C1.90374 24.1412 2.43022 24.3233 2.9056 24.4722C3.33433 24.6054 3.81193 24.7498 3.84303 25.1741C3.84303 26.1071 3.58979 26.287 2.85228 26.0516Z" fill="black"/>
<path d="M15.6787 7.12109C16.0319 7.12554 16.2385 7.27215 16.3984 7.47652C16.7094 7.87637 17.0093 8.28511 17.3114 8.69385C17.4536 8.88489 17.5069 9.05816 17.2692 9.23365C17.0293 9.41359 16.8938 9.30474 16.7538 9.10926C16.5206 8.78271 16.2918 8.4495 16.0363 8.14073C15.8697 7.9408 15.6853 7.64979 15.3632 7.9097C15.0789 8.14072 15.2189 8.41396 15.3699 8.64721C15.5765 8.96709 15.8097 9.2692 16.0341 9.57575C16.1807 9.77568 16.3051 9.96005 16.0252 10.1622C15.7476 10.3621 15.6187 10.1977 15.4699 9.98671C15.2277 9.64017 14.9678 9.30696 14.7057 8.97597C14.5569 8.78937 14.3814 8.61166 14.1215 8.81381C13.8949 8.9893 13.9038 9.22699 14.0371 9.44024C14.2725 9.81566 14.5391 10.1689 14.7923 10.5332C14.9145 10.7087 15.05 10.8642 14.7901 11.0619C14.5302 11.2596 14.3903 11.1729 14.2281 10.9441C13.8505 10.4088 13.4573 9.88453 13.0708 9.35584C12.9686 9.21367 12.8486 8.98264 13.0774 8.94487C13.7372 8.83602 13.8771 7.86749 14.6813 8.02077C14.8568 8.05409 14.8457 7.80751 14.9034 7.68089C15.0722 7.31658 15.3566 7.13887 15.6787 7.12109Z" fill="black"/>
<path d="M12.06 10.0247C11.769 10.0291 11.498 10.1024 11.3492 10.3601C11.1781 10.6578 11.0159 10.911 10.6539 11.0376C10.3917 11.1287 10.4939 11.3597 10.6627 11.5441C11.3292 12.2794 11.9956 13.0125 12.6487 13.7633C12.8486 13.9966 13.0063 13.981 13.2262 13.81C13.495 13.6034 13.3329 13.459 13.1863 13.299C13.0152 13.1147 12.8486 12.9325 12.6242 12.6904C13.3595 12.4504 13.6372 12.1839 13.675 11.7329C13.7394 10.9066 12.8886 10.0069 12.06 10.0247ZM12.4621 12.1594C12.0445 12.1706 11.5246 11.6374 11.5246 11.2065C11.5224 10.8621 11.7268 10.7111 12.0356 10.6955C12.4288 10.6778 12.9708 11.2442 12.9752 11.744C12.9663 11.9884 12.782 12.1528 12.4621 12.1594Z" fill="black"/>
<path d="M25.7616 2.92719C25.7883 2.30298 25.9749 1.70764 26.6235 1.39442C27.1656 1.13229 27.7298 1.09453 28.2474 1.4655C28.4407 1.60323 28.745 1.80094 28.5784 2.05862C28.4162 2.3052 28.1119 2.38739 27.8342 2.08084C27.5899 1.81205 27.27 1.84536 26.9568 1.97198C26.6169 2.10971 26.5147 2.37406 26.5147 2.72282C26.5147 3.19598 26.5636 3.65359 26.8435 4.05123C27.2278 4.59769 27.9542 4.5466 28.1941 3.92683C28.3274 3.58473 28.4673 3.42256 28.825 3.57362C29.227 3.74467 28.9449 4.0179 28.8738 4.20228C28.5029 5.16415 27.2033 5.41294 26.4525 4.68432C25.9682 4.2156 25.7772 3.62916 25.7616 2.92719Z" fill="black"/>
<path d="M53.1405 6.34377C54.0402 6.33933 54.8066 7.07906 54.7266 7.87876C54.7066 8.06758 54.7132 8.30528 54.4311 8.25863C54.2379 8.22753 53.9713 8.19865 53.9913 7.9032C54.0224 7.41671 53.7936 7.13015 53.3404 7.03907C52.8562 6.94133 52.5363 7.24122 52.2764 7.58776C52.1009 7.82101 51.9409 8.07425 51.8721 8.37192C51.7988 8.68958 51.8654 8.96726 52.1053 9.18051C52.343 9.38932 52.6229 9.47818 52.9206 9.29602C53.2049 9.12053 53.4515 9.12275 53.5892 9.45819C53.7558 9.86693 53.3693 9.91357 53.1494 10.0047C52.423 10.3023 51.45 9.80029 51.2034 9.02946C50.8413 7.88543 51.9498 6.35043 53.1405 6.34377Z" fill="black"/>
<path d="M34.7761 1.89612C34.5629 1.65621 34.2941 1.53403 33.9875 1.5829C33.6321 1.64288 33.3078 1.82281 32.9301 1.62067C32.7724 1.53403 32.6169 1.65843 32.6147 1.88501C32.6125 2.93796 32.6014 3.9909 32.5947 5.04607C32.5925 5.28598 32.7102 5.37928 32.9435 5.37928C33.1878 5.3815 33.2789 5.26599 33.2744 5.03274C33.2656 4.75951 33.2722 4.4885 33.2722 4.16417C34.0542 4.45073 34.4607 4.41075 34.7739 4.06643C35.2626 3.52663 35.2626 2.43814 34.7761 1.89612ZM33.8853 3.81763C33.3611 3.81763 33.2789 3.36447 33.2744 2.9424C33.2722 2.52922 33.3877 2.13825 33.8964 2.16491C34.3696 2.18934 34.4074 2.58476 34.4318 2.91353C34.3851 3.33781 34.4096 3.81541 33.8853 3.81763Z" fill="black"/>
<path d="M41.0383 2.75583C40.8206 2.1827 40.4052 2.0161 39.5432 2.16715C39.4677 1.83172 39.5832 1.56737 39.6188 1.29858C39.6565 1.03423 39.4833 0.972039 39.2856 0.934275C39.0834 0.89429 38.9723 0.980921 38.939 1.19418C38.7813 2.21824 38.6169 3.24232 38.4503 4.26416C38.4059 4.5374 38.5481 4.73066 38.7835 4.65291C39.1034 4.54628 39.3011 4.63736 39.5588 4.80841C39.8343 4.9839 40.1741 4.93725 40.4651 4.75509C41.0116 4.41966 41.2937 3.42891 41.0383 2.75583ZM40.4074 3.47557C40.3541 3.78434 40.323 4.28415 39.7765 4.28859C39.33 4.29304 39.2278 3.88874 39.2478 3.50444C39.2745 3.09126 39.3655 2.65364 39.8676 2.62699C40.3296 2.60255 40.4451 2.96464 40.4074 3.47557Z" fill="black"/>
<path d="M36.28 1.71433C36.0046 1.81207 35.6358 1.98757 35.758 2.30745C35.869 2.59845 36.2156 2.50071 36.4555 2.31189C36.4866 2.28523 36.5288 2.26746 36.5688 2.25635C36.8154 2.19415 37.0775 2.20748 37.1419 2.47849C37.1975 2.72507 36.9287 2.74728 36.7532 2.79171C36.611 2.82503 36.4622 2.8317 36.3178 2.86502C35.6891 3.00941 35.427 3.35817 35.5536 3.87798C35.6669 4.35781 36.1467 4.58661 36.7176 4.42667C36.8576 4.38669 37.0442 4.2534 37.1175 4.30005C38.0171 4.88206 37.795 4.1601 37.8106 3.71804C37.815 3.59142 37.8239 3.46702 37.8283 3.33818C37.8372 3.33818 37.8439 3.33818 37.8483 3.3404C37.8483 3.16935 37.8461 3.00275 37.8505 2.83392C37.8728 1.8565 37.2174 1.38334 36.28 1.71433ZM36.6177 3.98017C36.4066 3.98461 36.2178 3.89797 36.2178 3.67139C36.22 3.25598 36.5932 3.29597 36.8243 3.20934C37.0064 3.20045 37.1797 3.18934 37.1597 3.40926C37.1308 3.73137 36.9797 3.96684 36.6177 3.98017Z" fill="black"/>
<path d="M48.2445 6.58982C48.6777 6.16553 49.0176 5.8612 49.3219 5.52576C49.5685 5.25253 49.8239 5.27697 50.0261 5.49911C50.2593 5.75457 49.9261 5.85231 49.8017 5.97893C49.1664 6.62536 48.5177 7.25846 47.8713 7.89601C47.4937 8.2692 47.0783 8.33584 46.6073 8.06039C46.423 7.95154 46.4007 7.82048 46.4563 7.63832C46.5163 7.44062 46.6451 7.45173 46.805 7.49837C47.3182 7.64943 47.4937 7.37842 47.5403 6.92081C47.6092 6.24994 47.6825 5.57686 47.7736 4.90821C47.7958 4.74827 47.7225 4.45727 48.0312 4.5128C48.2467 4.55279 48.4889 4.65053 48.4467 4.97041C48.38 5.46134 48.3223 5.9545 48.2445 6.58982Z" fill="black"/>
<path d="M19.675 7.19611C19.3862 6.95397 19.0974 7.20721 19.0352 7.59152C19.033 7.61151 19.0152 7.62928 18.9975 7.64483C18.862 7.80477 18.6887 7.86475 18.4888 7.80255C18.3555 7.76034 18.18 7.70703 18.18 7.5382C18.18 7.33161 18.3955 7.29829 18.531 7.22054C18.7864 7.0717 19.0508 6.94065 19.3107 6.8007C19.4929 6.70518 19.5306 6.57855 19.444 6.38307C19.2152 5.88325 18.5621 5.55226 18.0156 5.67666C17.458 5.8055 17.1159 6.2409 17.1226 6.81624C17.1315 7.46267 17.5958 8.20462 18.1311 8.38011C18.6421 8.54894 19.1019 8.39122 19.464 8.02247C19.6817 7.80033 19.926 7.4027 19.675 7.19611ZM18.0023 6.95175C17.8001 7.01173 17.7624 6.8229 17.769 6.67629C17.7846 6.37862 17.9623 6.23868 18.26 6.22979C18.4466 6.26756 18.6976 6.33642 18.6509 6.53635C18.5843 6.82069 18.2555 6.87622 18.0023 6.95175Z" fill="black"/>
<path d="M9.90524 12.3302C9.1744 12.3191 8.55907 12.9167 8.54796 13.6386C8.54352 14.3428 9.31657 15.1336 10.0208 15.1359C10.7161 15.1359 11.3647 14.4961 11.3736 13.7964C11.3825 13.0522 10.6672 12.3369 9.90524 12.3302ZM10.1851 14.4428C9.60535 14.3717 9.17884 13.8919 9.22993 13.472C9.27214 13.1122 9.49206 12.9611 9.84082 12.9967C10.2918 13.0411 10.776 13.532 10.7249 13.9185C10.6761 14.2895 10.445 14.4672 10.1851 14.4428Z" fill="black"/>
<path d="M55.5041 9.29156C54.711 9.2538 53.9846 9.92466 53.9469 10.7288C53.9158 11.4352 54.4645 12.0505 55.1642 12.095C55.9306 12.1394 56.6814 11.4508 56.7325 10.6555C56.777 9.97797 56.1883 9.3271 55.5041 9.29156ZM55.2086 11.4508C54.8732 11.4485 54.6488 11.2731 54.6133 10.9221C54.5689 10.5022 55.0176 9.96909 55.4352 9.94465C55.8129 9.92688 56.0217 10.129 56.0794 10.4756C56.0972 10.8799 55.5907 11.4552 55.2086 11.4508Z" fill="black"/>
<path d="M31.9683 4.08819C31.8772 3.61281 31.835 3.13077 31.775 2.64872C31.7306 2.28441 31.6928 1.88456 31.2507 1.80903C30.7309 1.72017 30.1867 1.66463 29.7735 2.11558C29.6536 2.24664 29.4936 2.44213 29.6691 2.61095C29.809 2.74646 30.0467 2.74201 30.1889 2.5954C30.3955 2.3777 30.6065 2.23776 30.9109 2.36216C31.0153 2.40436 31.093 2.51543 31.0575 2.61318C30.9553 2.90418 30.6421 2.85753 30.4222 2.95527C30.0312 3.12854 29.618 3.26183 29.6047 3.6328C29.5914 4.38364 30.1711 4.79016 30.7576 4.55691C31.0575 4.44139 31.3018 4.32143 31.6417 4.44139C31.8639 4.52358 32.0305 4.40141 31.9683 4.08819ZM31.1863 3.54395C31.1441 3.88604 30.9509 4.07708 30.6088 4.08375C30.3666 4.09263 30.2644 3.89715 30.2933 3.7061C30.3466 3.33291 30.7065 3.33069 30.9708 3.25961C31.173 3.20851 31.1997 3.38401 31.1863 3.54395Z" fill="black"/>
<path d="M5.37803 21.6198C5.03593 21.6287 4.97818 22.0085 5.14922 22.3595C5.24475 22.5505 5.10035 22.7194 4.92708 22.8304C4.79602 22.9149 4.62941 22.9548 4.50946 22.8638C4.29842 22.7083 4.46281 22.5261 4.52501 22.3573C4.57166 22.2395 4.62275 22.124 4.67162 22.0085C5.01594 21.2244 4.93375 21.0911 4.07628 21.0666C3.63422 21.0489 3.30768 21.2266 3.0811 21.6131C2.57684 22.475 3.25214 23.4702 4.4095 23.5635C5.16033 23.6257 5.74012 23.1303 5.75567 22.3928C5.76233 22.0707 5.7068 21.6109 5.37803 21.6198ZM4.2229 21.8952C4.14959 22.1462 4.13404 22.4994 3.8497 22.575C3.61645 22.6372 3.51205 22.3706 3.49428 22.1551C3.47428 21.8464 3.68087 21.7131 3.92745 21.6553C4.10516 21.6731 4.2851 21.6842 4.2229 21.8952Z" fill="black"/>
<path d="M8.53908 17.0171C8.53686 17.0171 8.53686 17.0148 8.53464 17.0082L8.32361 16.766C8.29473 16.766 8.26141 16.7771 8.21698 16.7971C8.0326 16.886 7.87266 17.0326 7.95708 17.2992C8.03483 17.548 7.95708 17.7501 7.72161 17.8812C7.53057 17.9834 7.34175 17.95 7.19736 17.8145C7.04852 17.679 7.21513 17.5546 7.2751 17.4347C7.47281 17.0482 7.866 16.7816 7.94152 16.3218C7.87044 16.2684 7.79936 16.2151 7.72827 16.1618C7.42172 15.9574 7.09739 15.8042 6.71753 15.9286C6.71531 15.9286 6.70864 15.9308 6.70642 15.9308C6.59091 15.9774 6.4754 16.0219 6.35988 16.0707C6.35766 16.073 6.35544 16.073 6.351 16.0752C5.749 16.4839 5.61794 16.8638 5.84008 17.5724C5.98669 17.7457 6.11109 17.9523 6.28658 18.0878C6.73974 18.4365 7.22179 18.7697 7.83268 18.4765C8.4058 18.2011 8.63461 17.7146 8.60573 17.0926L8.53908 17.0171ZM6.64867 17.4214C6.47318 17.448 6.351 17.2036 6.36877 17.0015C6.38876 16.7149 6.55981 16.5572 6.83971 16.5439C6.99743 16.5617 7.22845 16.5639 7.1818 16.7327C7.09739 17.0171 6.99299 17.3747 6.64867 17.4214Z" fill="black"/>
<path d="M21.2833 4.18903C21.6587 4.16682 21.8786 4.38895 22.0164 4.69329C22.2318 5.17311 22.4207 5.66626 22.6272 6.15053C22.7117 6.34601 22.7494 6.50374 22.4984 6.61259C22.2607 6.71477 22.1008 6.68367 21.9986 6.42599C21.8364 6.01503 21.6609 5.60851 21.4899 5.19977C21.3766 4.93098 21.1833 4.77993 20.8945 4.88433C20.6147 4.98652 20.5147 5.23753 20.5969 5.5041C20.7279 5.92617 20.9057 6.33269 21.0634 6.74587C21.1389 6.94358 21.2389 7.13017 20.939 7.25902C20.6369 7.39008 20.5236 7.25235 20.4236 6.99911C20.1837 6.39266 19.926 5.79066 19.675 5.18866C19.6172 5.05094 19.5395 4.83102 19.7283 4.82657C20.2637 4.8088 20.588 4.40006 21.0323 4.22235C21.11 4.18681 21.2011 4.19792 21.2833 4.18903Z" fill="black"/>
<path d="M27.1434 60.2391C27.4855 60.2368 27.6276 60.3657 27.481 60.7811C27.039 62.034 26.6236 63.2979 26.2104 64.5597C26.1171 64.8463 26.0393 65.084 25.6528 64.9573C25.2863 64.8352 25.3818 64.6019 25.4662 64.3509C25.8816 63.1114 26.2926 61.8674 26.7102 60.6278C26.7746 60.4434 26.7879 60.1835 27.1434 60.2391Z" fill="black"/>
<path d="M50.9546 61.5449C50.9369 61.796 50.768 61.8537 50.6214 61.9315C50.3815 62.0581 50.2749 61.8915 50.1727 61.7249C49.7751 61.0784 49.3819 60.432 48.9865 59.7856C48.6688 59.2635 48.3667 58.7326 48.0268 58.2262C47.8358 57.9396 47.9202 57.7863 48.1668 57.6064C48.4867 57.3709 48.56 57.6308 48.6755 57.8219C49.3797 58.9659 50.0838 60.1077 50.788 61.2517C50.8525 61.3583 50.9102 61.4694 50.9546 61.5449Z" fill="black"/>
<path d="M5.8223 19.7389C5.54018 19.4079 5.27139 19.0614 4.96705 18.7526C4.72714 18.5083 4.77824 18.2861 4.97372 18.0951C5.24029 17.8329 5.33581 18.1773 5.44466 18.2994C5.8956 18.7993 6.31767 19.3235 6.75751 19.8344C6.88857 19.9877 6.97965 20.1166 6.85969 20.3342C6.74196 20.5475 6.59979 20.6497 6.35766 20.6141C5.64903 20.5097 4.9404 20.4142 4.23399 20.3009C4.08516 20.2765 3.84302 20.2765 3.91411 20.0233C3.97409 19.8056 4.06516 19.5768 4.38726 19.6412C4.83821 19.73 5.2936 19.7989 5.74677 19.8744C5.77343 19.8278 5.79786 19.7833 5.8223 19.7389Z" fill="black"/>
<path d="M23.8912 6.12094C23.5336 6.12983 23.3958 5.92991 23.2648 5.69666C22.9671 5.17019 23.0249 4.45711 22.3718 4.10391C22.1807 4.00172 22.4717 2.89768 22.6739 2.73996C22.7783 2.65999 22.8783 2.63334 22.9293 2.75551C23.0671 3.0754 23.1337 3.42638 23.618 3.41305C23.7179 3.41083 23.7935 3.65963 23.6846 3.84845C23.3647 4.39269 23.6491 5.18796 24.2333 5.38122C24.4288 5.44564 24.5465 5.57893 24.5021 5.74553C24.4132 6.06764 24.1045 6.07874 23.8912 6.12094Z" fill="black"/>
<path d="M45.5877 5.97639C45.6788 5.71205 45.801 5.3744 45.9076 5.03452C45.992 4.77017 46.2141 4.52804 45.9676 4.2126C45.872 4.09042 45.9453 3.88383 46.1497 3.81497C46.5229 3.68613 46.6362 3.10189 47.1605 3.23962C47.1782 3.24406 47.2004 3.2574 47.2093 3.27295C47.3759 3.56617 46.8739 3.86162 47.2493 4.19705C47.4892 4.41031 47.4359 4.47251 46.8917 4.69687C46.6829 4.7835 46.2408 5.94086 46.3918 6.1119C46.5473 6.29184 46.7495 6.41846 46.5429 6.6717C46.4052 6.8383 46.2319 6.75389 46.0742 6.70502C45.8187 6.62505 45.6188 6.48065 45.5877 6.18521C45.5833 6.143 45.5877 6.10079 45.5877 5.97639Z" fill="black"/>
<path d="M6.80194 13.8984C6.90857 13.954 7.06629 14.0162 7.19735 14.1139C7.93708 14.6715 8.67014 15.2402 9.40987 15.8C9.6209 15.9599 9.72975 16.0932 9.51206 16.3575C9.30324 16.6108 9.13664 16.533 8.92782 16.3975C8.06814 15.8311 7.39728 15.0247 6.50427 14.5004C6.40209 14.4405 6.27991 14.3361 6.36877 14.1939C6.45318 14.0539 6.55092 13.9029 6.80194 13.8984Z" fill="black"/>
<path d="M44.4925 2.34957C44.1549 3.38919 43.8217 4.43103 43.4774 5.46843C43.3907 5.72611 43.1864 5.64836 43.002 5.58838C42.7865 5.51952 42.7843 5.37068 42.8443 5.18631C43.1641 4.20667 43.4863 3.22702 43.7906 2.24072C43.8639 2.00303 43.9816 1.93861 44.206 1.99859C44.3837 2.04968 44.5281 2.11855 44.4925 2.34957Z" fill="black"/>
<path d="M52.0787 62.3344C52.0676 62.5632 51.9187 62.6076 51.7321 62.6076C51.4789 62.6054 51.2656 62.6765 51.1968 62.952C51.1435 63.163 51.2634 63.3163 51.41 63.4473C51.6322 63.6473 51.8232 63.4984 52.0453 63.4185C52.2586 63.3429 52.5096 62.9564 52.6762 63.223C52.9184 63.6095 52.4652 63.7339 52.2119 63.8916C51.8721 64.1027 51.5189 64.2959 51.1701 64.4936C51.0813 64.5447 50.9746 64.6136 50.8791 64.5358C50.7658 64.4447 50.7569 64.2581 50.8347 64.1915C51.1634 63.9027 50.868 63.725 50.748 63.5073C50.557 63.1608 50.5659 62.8142 50.8147 62.501C51.0724 62.1745 51.43 62.0723 51.8321 62.1056C51.9676 62.1123 52.0698 62.1811 52.0787 62.3344Z" fill="black"/>
<path d="M45.4633 3.86456C45.2634 4.47767 45.0346 5.1974 44.7947 5.91491C44.7236 6.13039 44.5592 6.11262 44.3815 6.03709C44.2193 5.96823 44.0727 5.92158 44.1505 5.67944C44.3815 4.98192 44.5925 4.27774 44.8147 3.57577C44.8813 3.36696 45.0324 3.34919 45.219 3.41139C45.39 3.46692 45.5433 3.5269 45.4633 3.86456Z" fill="black"/>
<path d="M42.7287 2.8918C42.5177 3.68928 42.3378 4.35793 42.1645 5.02879C42.1134 5.22428 42.0179 5.32424 41.8069 5.2687C41.6203 5.21761 41.4226 5.18429 41.4936 4.90661C41.678 4.19576 41.858 3.48491 42.0446 2.77628C42.1001 2.56081 42.2578 2.5497 42.4422 2.60301C42.6577 2.66299 42.7665 2.78517 42.7287 2.8918Z" fill="black"/>
<path d="M8.60572 17.095L8.53908 17.0195C8.53686 17.0195 8.53686 17.0173 8.53464 17.0106C8.47688 16.9107 8.44578 16.7663 8.3236 16.7685L7.9393 16.3242C8.16588 16.5775 8.71235 16.553 8.60572 17.095Z" fill="black"/>
<path d="M37.6751 61.5679C37.7417 61.95 37.4907 61.9211 37.2863 61.9477C36.9087 61.9944 36.8976 61.73 36.8687 61.4679C36.8287 61.1058 37.1041 61.1169 37.3218 61.0925C37.7439 61.0436 37.6217 61.3968 37.6751 61.5679Z" fill="black"/>
<path d="M32.7791 60.9675C32.7591 61.2251 32.7169 61.4206 32.4125 61.3895C32.1326 61.3606 31.9883 61.2429 32.0349 60.9386C32.0727 60.6942 32.106 60.4876 32.4459 60.5187C32.7769 60.5498 32.8168 60.7342 32.7791 60.9675Z" fill="black"/>
<path d="M31.7439 60.7283C31.695 61.0349 31.715 61.277 31.384 61.2392C31.1108 61.2081 30.9442 61.1104 31.0042 60.7949C31.0508 60.5461 31.1108 60.344 31.4373 60.384C31.7261 60.4217 31.7816 60.5839 31.7439 60.7283Z" fill="black"/>
<path d="M23.0204 59.0859C22.8383 59.0148 22.5673 59.017 22.6006 58.7704C22.6295 58.5461 22.6672 58.2284 22.996 58.2173C23.1715 58.2106 23.4314 58.2706 23.4136 58.5083C23.3959 58.746 23.307 59.0059 23.0204 59.0859Z" fill="black"/>
<path d="M59.005 44.543C59.2294 44.6651 59.5737 44.6252 59.5737 44.9628C59.5737 45.1516 59.5048 45.4315 59.2183 45.3804C59.0117 45.3427 58.7162 45.3249 58.694 45.0228C58.6807 44.8118 58.7651 44.6141 59.005 44.543Z" fill="black"/>
<path d="M51.741 55.8737C51.6899 56.1136 51.5344 56.2869 51.3212 56.2691C51.0568 56.2469 50.8769 56.0026 50.8436 55.7671C50.8191 55.5916 51.0479 55.425 51.2212 55.4139C51.5144 55.3961 51.6055 55.6782 51.741 55.8737Z" fill="black"/>
<path d="M59.9691 43.9942C59.8669 44.1631 59.8803 44.4674 59.5759 44.3785C59.3671 44.3185 59.0183 44.3452 59.085 43.9587C59.1161 43.781 59.1716 43.5388 59.4204 43.5966C59.6359 43.6477 59.9402 43.6543 59.9691 43.9942Z" fill="black"/>
<path d="M9.76529 54.3105C10.0008 54.3572 10.1407 54.5349 10.134 54.7082C10.1229 54.9925 9.86081 55.1391 9.61646 55.1658C9.41431 55.188 9.25214 54.9481 9.26103 54.7859C9.27658 54.5105 9.54759 54.4083 9.76529 54.3105Z" fill="black"/>
<path d="M56.3526 13.3898C56.1305 13.3254 55.9439 13.1899 55.9506 12.97C55.9572 12.7567 56.1438 12.5701 56.3482 12.5413C56.5748 12.5102 56.7503 12.7123 56.7725 12.9167C56.7991 13.181 56.5592 13.2899 56.3526 13.3898Z" fill="black"/>
<path d="M52.5763 55.2167C52.4963 55.4411 52.3341 55.6188 52.1298 55.5966C51.8987 55.5721 51.7121 55.3544 51.681 55.1278C51.6499 54.899 51.861 54.7191 52.0676 54.7258C52.3408 54.7324 52.4452 55.0057 52.5763 55.2167Z" fill="black"/>
<path d="M24.3577 59.055C24.24 59.2416 24.24 59.557 23.9312 59.5304C23.7668 59.5148 23.4936 59.4504 23.5491 59.2083C23.598 58.9906 23.6358 58.6551 23.9912 58.704C24.1578 58.7262 24.3755 58.7907 24.3577 59.055Z" fill="black"/>
<path d="M10.3051 56.0009C10.0563 55.9765 9.92524 55.7943 9.91857 55.6299C9.90747 55.33 10.2074 55.2256 10.4228 55.1656C10.6183 55.1101 10.7672 55.3411 10.7694 55.5188C10.7783 55.8165 10.5028 55.8965 10.3051 56.0009Z" fill="black"/>
<path d="M45.8276 2.72266C45.7565 2.92481 45.7276 3.16694 45.4277 3.11141C45.2389 3.07587 45.0323 3.02922 45.0745 2.76487C45.1079 2.55606 45.1501 2.31614 45.4589 2.39389C45.6299 2.43832 45.8587 2.44721 45.8276 2.72266Z" fill="black"/>
<path d="M43.002 1.86299C42.9331 2.10735 42.9265 2.33393 42.6443 2.28728C42.4222 2.25174 42.2312 2.1851 42.2756 1.88743C42.3089 1.66529 42.3889 1.51646 42.6421 1.58532C42.8154 1.63419 43.042 1.64752 43.002 1.86299Z" fill="black"/>
<path d="M58.6696 44.0849C58.5852 44.2471 58.5763 44.5048 58.3031 44.4181C58.1231 44.3626 57.841 44.3715 57.8632 44.0694C57.8765 43.8694 57.9721 43.6851 58.2231 43.7362C58.4186 43.7784 58.654 43.8028 58.6696 44.0849Z" fill="black"/>
<path d="M6.3621 16.0732C5.8534 16.4575 5.71567 16.9707 5.84007 17.5749C5.43355 17.024 5.68679 16.2954 6.3621 16.0732Z" fill="black"/>
<path d="M7.72826 16.1645C7.38838 16.089 7.04851 16.0113 6.70863 15.9357C7.12182 15.6803 7.45725 15.778 7.72826 16.1645Z" fill="black"/>
</svg>
