<svg width="153" height="33" viewBox="0 0 153 33" fill="none" xmlns="http://www.w3.org/2000/svg">
<g clip-path="url(#clip0_48_5427)">
<path fill-rule="evenodd" clip-rule="evenodd" d="M9.04038 2.25391V36.0591H0V2.25391H9.04038Z" fill="#999999"/>
<path fill-rule="evenodd" clip-rule="evenodd" d="M13.5605 2.25391H32.7714C39.0125 2.25391 44.0719 7.29893 44.0719 13.5223C44.0719 19.7457 39.0125 24.7907 32.7714 24.7907H22.6009V36.0591H13.5605V2.25391ZM22.6009 15.776H32.7714C34.0196 15.776 35.0315 14.7669 35.0315 13.5223C35.0315 12.2776 34.0196 11.2686 32.7714 11.2686H22.6009V15.776Z" fill="#999999"/>
<path fill-rule="evenodd" clip-rule="evenodd" d="M77.9732 2.25391V19.7199C77.9732 23.7651 81.2618 27.0443 85.3185 27.0443C89.3753 27.0443 92.664 23.7651 92.664 19.7199V2.25391H101.705V19.7199C101.705 28.7438 94.3683 36.0591 85.3185 36.0591C76.2689 36.0591 68.9329 28.7438 68.9329 19.7199V2.25391H77.9732Z" fill="#999999"/>
<path fill-rule="evenodd" clip-rule="evenodd" d="M47.462 18.0296C47.462 9.31693 54.5451 2.25391 63.2827 2.25391H65.5428V11.2686H63.2827C59.538 11.2686 56.5024 14.2957 56.5024 18.0296V19.1565C56.5024 28.4915 48.9133 36.0591 39.5516 36.0591H38.4216V27.0443H39.5516C43.9204 27.0443 47.462 23.5128 47.462 19.1565V18.0296Z" fill="#999999"/>
<path d="M152.557 3.38051C152.557 5.24752 151.039 6.76103 149.166 6.76103C147.294 6.76103 145.776 5.24752 145.776 3.38051C145.776 1.51351 147.294 0 149.166 0C151.039 0 152.557 1.51351 152.557 3.38051Z" fill="#999999"/>
<path d="M111.411 36.0584L115.725 18.0453L118.933 28.882C120.845 35.3454 130.026 35.3454 131.939 28.882L135.145 18.0453L139.459 36.0584H148.753L141.971 7.73371C140.357 0.99788 130.838 0.74848 128.872 7.39063L125.436 19.0055L121.998 7.39064C120.033 0.748519 110.513 0.997844 108.9 7.7337L102.117 36.0584H111.411Z" fill="#999999"/>
</g>
<defs>
<clipPath id="clip0_48_5427">
<rect width="152.557" height="36.0588" fill="white"/>
</clipPath>
</defs>
</svg>
