<svg width="208" height="33" viewBox="0 0 208 33" fill="none" xmlns="http://www.w3.org/2000/svg">
<g clip-path="url(#clip0_48_5434)">
<path d="M116.768 27.9792H121.198V11.3105H116.768V27.9792ZM116.768 8.71117H121.198V4.74707H116.768V8.71117Z" fill="#999999"/>
<path d="M124.052 33.4388H128.483V26.0955H128.547C129.491 27.5252 131.023 28.4675 133.368 28.4675C137.667 28.4675 140.599 25.0557 140.599 19.662C140.599 14.4631 137.765 10.8564 133.335 10.8564C131.055 10.8564 129.491 11.9288 128.417 13.3909H128.319V11.3113H124.052V33.4388ZM132.423 24.7958C129.785 24.7958 128.385 22.8138 128.385 19.7919C128.385 16.8026 129.491 14.4307 132.261 14.4307C134.997 14.4307 136.104 16.6402 136.104 19.7919C136.104 22.9437 134.671 24.7958 132.423 24.7958Z" fill="#999999"/>
<path d="M149.436 28.4675C153.605 28.4675 156.472 26.4529 156.472 23.1061C156.472 19.2071 153.377 18.4272 150.576 17.8424C148.198 17.355 145.983 17.225 145.983 15.7954C145.983 14.5931 147.123 13.9433 148.85 13.9433C150.739 13.9433 151.879 14.5931 152.074 16.3802H156.08C155.755 13.0335 153.312 10.8564 148.915 10.8564C145.104 10.8564 142.107 12.5786 142.107 16.1853C142.107 19.8244 145.039 20.6367 148.035 21.2216C150.315 21.6765 152.432 21.839 152.432 23.4311C152.432 24.6008 151.325 25.3482 149.371 25.3482C147.384 25.3482 146.016 24.5033 145.723 22.5863H141.619C141.879 26.128 144.583 28.4675 149.436 28.4675Z" fill="#999999"/>
<path d="M173.29 27.9802V11.3115H168.86V20.9293C168.86 23.1388 167.59 24.6984 165.505 24.6984C163.616 24.6984 162.737 23.6262 162.737 21.6767V11.3115H158.339V22.424C158.339 26.0631 160.423 28.4351 164.137 28.4351C166.483 28.4351 167.785 27.5578 168.925 26.0307H169.023V27.9802H173.29Z" fill="#999999"/>
<path d="M176.155 27.9801H180.585V18.2973C180.585 16.0877 181.791 14.6581 183.583 14.6581C185.211 14.6581 186.155 15.6329 186.155 17.5174V27.9801H190.585V18.2973C190.585 16.0877 191.725 14.6581 193.582 14.6581C195.211 14.6581 196.155 15.6329 196.155 17.5174V27.9801H200.585V16.7701C200.585 13.1309 198.598 10.8564 195.08 10.8564C192.963 10.8564 191.204 11.9612 190.064 13.7808H189.999C189.185 12.0262 187.491 10.8564 185.373 10.8564C183.061 10.8564 181.433 12.0262 180.521 13.5533H180.423V11.3113H176.155V27.9801Z" fill="#999999"/>
<path d="M1.30957 27.9792H5.73943V4.74707H1.30957V27.9792Z" fill="#999999"/>
<path d="M16.571 28.4675C21.75 28.4675 25.3004 24.6333 25.3004 19.662C25.3004 14.6906 21.75 10.8564 16.571 10.8564C11.3919 10.8564 7.84155 14.6906 7.84155 19.662C7.84155 24.6333 11.3919 28.4675 16.571 28.4675ZM16.571 25.0882C13.8349 25.0882 12.3366 22.9112 12.3366 19.662C12.3366 16.4127 13.8349 14.2032 16.571 14.2032C19.2745 14.2032 20.8054 16.4127 20.8054 19.662C20.8054 22.9112 19.2745 25.0882 16.571 25.0882Z" fill="#999999"/>
<path d="M34.7211 33.6663C37.1966 33.6663 39.3464 33.0814 40.747 31.7817C41.9848 30.6444 42.734 29.0523 42.734 26.7129V11.3113H38.467V13.066H38.4018C37.392 11.6688 35.8611 10.8564 33.7765 10.8564C29.5421 10.8564 26.5454 14.0407 26.5454 19.0121C26.5454 24.0484 30.1935 26.9727 33.9068 26.9727C36.024 26.9727 37.2944 26.128 38.2715 25.0232H38.3692V26.8428C38.3692 29.1173 37.164 30.3195 34.6559 30.3195C32.6039 30.3195 31.6592 29.5072 31.301 28.4675H26.9037C27.3597 31.7167 30.1609 33.6663 34.7211 33.6663ZM34.6559 23.4311C32.3759 23.4311 30.8776 21.7739 30.8776 18.9471C30.8776 16.1528 32.3759 14.3982 34.6233 14.3982C37.2944 14.3982 38.5972 16.4777 38.5972 18.9146C38.5972 21.3841 37.4572 23.4311 34.6559 23.4311Z" fill="#999999"/>
<path d="M53.5014 28.4675C58.6805 28.4675 62.2309 24.6333 62.2309 19.662C62.2309 14.6906 58.6805 10.8564 53.5014 10.8564C48.3224 10.8564 44.772 14.6906 44.772 19.662C44.772 24.6333 48.3224 28.4675 53.5014 28.4675ZM53.5014 25.0882C50.7654 25.0882 49.2671 22.9112 49.2671 19.662C49.2671 16.4127 50.7654 14.2032 53.5014 14.2032C56.205 14.2032 57.7359 16.4127 57.7359 19.662C57.7359 22.9112 56.205 25.0882 53.5014 25.0882Z" fill="#999999"/>
<path d="M202.195 8.57358C202.195 7.82587 202.803 7.21973 203.552 7.21973H206.267C207.016 7.21973 207.624 7.82587 207.624 8.57358C207.624 9.3213 207.016 9.92745 206.267 9.92745H203.552C202.803 9.92745 202.195 9.3213 202.195 8.57358Z" fill="#999999"/>
<path fill-rule="evenodd" clip-rule="evenodd" d="M89.0959 0C99.5893 0 108.097 8.486 108.097 18.954C108.097 29.422 99.5893 37.908 89.0959 37.908C78.6021 37.908 70.0952 29.422 70.0952 18.954C70.0952 8.486 78.6021 0 89.0959 0ZM88.4091 1.41832C86.2414 1.72262 84.1774 3.46013 82.5751 6.36608C82.1104 7.20899 81.691 8.14023 81.3256 9.14572C83.5043 8.59959 85.8975 8.27761 88.4091 8.22781V1.41832ZM79.7197 9.60096C80.1742 8.17825 80.7301 6.86931 81.3716 5.70577C82.1659 4.26521 83.1085 3.02122 84.1705 2.06577C78.3954 3.73889 73.8433 8.27985 72.166 14.0408C73.1238 12.9814 74.3708 12.0411 75.815 11.2488C76.9814 10.6088 78.2935 10.0542 79.7197 9.60096ZM79.2634 11.2029C78.7159 13.3761 78.3932 15.7635 78.3432 18.2689H71.5169C71.822 16.1065 73.5638 14.0476 76.477 12.4494C77.3219 11.9857 78.2554 11.5674 79.2634 11.2029ZM79.717 18.2689C79.7738 15.5347 80.1684 12.9678 80.8213 10.6997C83.0949 10.0485 85.6681 9.65479 88.4091 9.59821V12.5578C87.3866 15.1691 85.3011 17.2493 82.6832 18.2689H79.717ZM78.3432 19.6391H71.5169C71.822 21.8015 73.5638 23.8603 76.477 25.4586C77.3219 25.9222 78.2554 26.3406 79.2634 26.7051C78.7159 24.5319 78.3932 22.1445 78.3432 19.6391ZM80.8213 27.2083C80.1684 24.9402 79.7738 22.3733 79.717 19.6391H82.6832C85.3011 20.6587 87.3866 22.7389 88.4091 25.3502V28.3098C85.6681 28.2532 83.0949 27.8595 80.8213 27.2083ZM79.7197 28.307C78.2935 27.8538 76.9814 27.2992 75.815 26.6592C74.3708 25.8669 73.1238 24.9266 72.166 23.8672C73.8433 29.6281 78.3954 34.1691 84.1705 35.8422C83.1085 34.8867 82.1659 33.6428 81.3716 32.2022C80.7301 31.0387 80.1742 29.7297 79.7197 28.307ZM88.4091 36.4897C86.2414 36.1854 84.1774 34.4478 82.5751 31.5419C82.1104 30.699 81.691 29.7677 81.3256 28.7623C83.5043 29.3084 85.8975 29.6304 88.4091 29.6802V36.4897ZM94.0211 35.8422C95.0832 34.8867 96.0257 33.6428 96.8199 32.2022C97.4612 31.0387 98.0179 29.7297 98.472 28.307C99.898 27.8538 101.21 27.2992 102.377 26.6592C103.821 25.8669 105.068 24.9266 106.026 23.8672C104.348 29.6281 99.7964 34.1691 94.0211 35.8422ZM96.8665 28.7623C96.5007 29.7677 96.0808 30.699 95.6162 31.5419C94.0143 34.4478 91.9502 36.1854 89.7826 36.4897V29.6802C92.2942 29.6304 94.6874 29.3084 96.8665 28.7623ZM98.928 26.7051C99.936 26.3406 100.87 25.9222 101.714 25.4586C104.628 23.8604 106.37 21.8015 106.675 19.6391H99.8486C99.7983 22.1445 99.4753 24.5319 98.928 26.7051ZM98.4749 19.6391C98.4179 22.3733 98.0236 24.9402 97.37 27.2083C95.0967 27.8595 92.5235 28.2532 89.7826 28.3098V25.3524C90.8048 22.7402 92.8908 20.659 95.5093 19.6391H98.4749ZM99.8486 18.2689H106.675C106.37 16.1065 104.628 14.0476 101.714 12.4494C100.87 11.9857 99.936 11.5674 98.928 11.2029C99.4753 13.3761 99.7983 15.7635 99.8486 18.2689ZM97.37 10.6997C98.0236 12.9678 98.4179 15.5347 98.4749 18.2689H95.5093C92.8908 17.249 90.8048 15.1678 89.7826 12.5556V9.59821C92.5235 9.65479 95.0967 10.0485 97.37 10.6997ZM98.472 9.60096C99.898 10.0542 101.21 10.6088 102.377 11.2488C103.821 12.0411 105.068 12.9814 106.026 14.0408C104.348 8.27985 99.7964 3.73889 94.0211 2.06577C95.0832 3.02122 96.0257 4.26521 96.8199 5.70577C97.4612 6.86931 98.0179 8.17825 98.472 9.60096ZM89.7826 1.41832C91.9502 1.72262 94.0143 3.46013 95.6162 6.36608C96.0808 7.209 96.5007 8.14023 96.8665 9.14572C94.6874 8.59959 92.2942 8.27761 89.7826 8.22781V1.41832Z" fill="#999999"/>
</g>
<defs>
<clipPath id="clip0_48_5434">
<rect width="207.107" height="37.908" fill="white" transform="translate(0.526611)"/>
</clipPath>
</defs>
</svg>
