<svg width="86" height="86" viewBox="0 0 86 86" fill="none" xmlns="http://www.w3.org/2000/svg">
<path d="M46.0631 38.6244C45.1078 37.1139 44.2208 35.6928 43.3126 34.2858C43.1408 34.0199 43.2373 33.8293 43.362 33.6105C45.209 30.38 47.0631 27.1519 48.8936 23.912C49.1006 23.5473 49.383 23.5826 49.6912 23.585C53.684 23.6038 57.6792 23.6226 61.672 23.6461C65.1942 23.6673 68.7164 23.6932 72.2387 23.7167C72.9892 23.7214 73.001 23.745 72.6386 24.3802C68.1376 32.2929 63.6366 40.2056 59.1356 48.1182C56.8086 52.2099 54.4816 56.3038 52.1546 60.3955C51.7758 61.0613 51.7735 61.059 51.3406 60.3978C50.6535 59.3484 49.9877 58.2826 49.2653 57.2567C48.9995 56.8779 49.03 56.6073 49.2371 56.2309C52.2393 50.7699 55.2298 45.3019 58.2203 39.8338C60.112 36.3775 61.9872 32.9117 63.9001 29.4671C64.2225 28.886 64.0507 28.8177 63.5001 28.8271C62.7613 28.8389 62.0178 28.813 61.2814 28.7612C60.8767 28.733 60.6838 28.9142 60.4979 29.2412C59.3473 31.2694 58.1733 33.2858 57.0133 35.3093C55.3875 38.1421 53.7664 40.9773 52.1429 43.8125C50.5312 46.6265 48.9218 49.4405 47.3077 52.2522C46.9336 52.9039 46.9242 52.9016 46.5195 52.2875C45.8278 51.2405 45.1572 50.1793 44.4443 49.1464C44.1808 48.7653 44.162 48.457 44.3902 48.05C45.9407 45.2854 47.4748 42.5114 49.0112 39.7397C50.91 36.3139 52.8017 32.8835 54.7146 29.4648C54.9945 28.9636 54.9145 28.8271 54.3428 28.8318C53.6487 28.8389 52.9523 28.7777 52.2605 28.7165C51.8747 28.6836 51.6582 28.8107 51.4629 29.1589C49.8183 32.0929 48.1524 35.0151 46.489 37.9398C46.3854 38.128 46.2607 38.3115 46.0631 38.6244Z" fill="white"/>
<path d="M22.4169 23.9016C22.5557 23.6334 22.8098 23.7345 23.0145 23.7345C30.9554 23.7298 38.8963 23.7322 46.8372 23.7228C47.3619 23.7228 47.5337 23.791 47.2395 24.3392C46.3596 25.9744 45.5196 27.6309 44.6702 29.2826C44.4749 29.6637 44.202 29.8426 43.7573 29.7861C43.2467 29.7226 42.7315 29.692 42.2185 29.6755C41.9033 29.6661 41.7738 29.4637 41.7127 29.2238C41.6021 28.7791 41.3174 28.7085 40.9103 28.7108C37.814 28.7226 34.72 28.7249 31.6236 28.7085C31.0707 28.7061 30.9248 28.8026 31.2472 29.3296C32.2542 30.9696 33.2353 32.6236 34.2141 34.28C34.4047 34.6024 34.6729 34.6518 35.007 34.633C37.134 34.5059 39.2657 34.5318 41.395 34.4847C41.9103 34.473 42.2162 34.6142 42.4609 35.0706C43.075 36.2141 43.7361 37.3341 44.3691 38.4681C44.4514 38.6164 44.6443 38.7646 44.5455 38.9481C44.4279 39.1646 44.1832 39.0658 43.9973 39.054C41.7809 38.9034 39.5598 38.974 37.3411 38.9481C37.2987 38.9481 37.2564 38.9716 37.1387 39.0046C37.7505 40.0493 38.3457 41.0845 38.9575 42.108C40.7809 45.162 42.6115 48.2137 44.4349 51.2653C46.5243 54.7617 48.6066 58.2628 50.7124 61.7497C50.9453 62.1332 50.9524 62.3944 50.6865 62.7685C49.9383 63.8296 49.2442 64.9284 48.5195 66.006C48.1383 66.5731 48.0513 66.5754 47.7054 65.9966C45.5831 62.4414 43.4656 58.8816 41.348 55.324C39.0939 51.5383 36.8399 47.7525 34.5859 43.9691C31.7083 39.1434 28.8308 34.3224 25.9556 29.4967C25.812 29.2543 25.7015 28.9885 25.3603 29.2543C25.3038 28.7085 25.0215 28.2685 24.7462 27.8097C23.9627 26.5109 23.2215 25.1886 22.4169 23.9016Z" fill="white"/>
<path d="M22.4168 23.9023C22.7086 23.9423 22.7933 24.2035 22.9156 24.4035C23.718 25.7235 24.4944 27.0575 25.3109 28.3681C25.5085 28.6834 25.4332 28.9539 25.3626 29.2527C25.0073 29.8174 24.7509 30.4386 24.3274 30.9703C23.9697 31.4174 24.0615 31.8668 24.3744 32.3703C28.9084 39.7112 33.4212 47.0662 37.9363 54.4166C39.0045 56.153 40.0609 57.8988 41.148 59.6235C41.4397 60.0893 41.3715 60.1976 40.828 60.2329C39.508 60.3176 38.1928 60.4517 36.8775 60.5928C36.4869 60.6352 36.2775 60.5128 36.0681 60.1811C31.5671 53.0049 27.0567 45.8381 22.5439 38.6689C22.2333 38.1771 21.8969 37.6995 21.5957 37.2007C21.4169 36.9066 21.2875 36.9301 21.1251 37.2007C20.6945 37.9089 20.271 38.6242 19.8216 39.3183C19.6169 39.6336 19.7605 39.8618 19.9134 40.1159C23.6309 46.351 27.3461 52.5884 31.0612 58.8235C31.1295 58.9364 31.1859 59.0541 31.2424 59.1576C31.1295 59.3435 30.9907 59.2776 30.8707 59.247C29.3272 58.8658 27.7884 58.4682 26.2426 58.1059C25.8167 58.0071 25.5414 57.8047 25.3061 57.4329C23.0474 53.8778 20.7722 50.3344 18.5017 46.7863C17.0664 44.544 15.643 42.2947 14.1959 40.0618C13.9607 39.6994 13.9277 39.4289 14.1465 39.0312C16.1112 35.4619 18.0476 31.8785 19.9957 28.3022C20.7981 26.834 21.6098 25.3705 22.4168 23.9023Z" fill="white"/>
<path d="M44.1879 69.3028C37.5528 69.2063 31.5601 66.9828 26.4379 62.4748C25.9508 62.0465 25.4967 61.5783 25.0073 61.1501C24.7132 60.8936 24.6921 60.6937 24.9391 60.369C25.6873 59.3831 25.6544 59.3878 26.5344 60.2372C30.6801 64.2371 35.574 66.7287 41.3221 67.3734C48.7642 68.2063 55.3851 66.2299 61.0838 61.3383C65.4177 57.6185 68.1329 52.8916 69.3164 47.3388C70.1987 43.2001 70.0152 39.052 68.8176 34.9722C68.6976 34.5628 69.4035 33.217 69.8058 33.0993C70.1093 33.0099 70.0599 33.2899 70.1093 33.424C70.627 34.8851 71.0105 36.3839 71.2387 37.9133C71.6905 40.9249 71.6857 43.9389 71.1375 46.9435C70.4458 50.7199 69.0341 54.2021 66.8883 57.3832C64.7001 60.6254 61.9284 63.263 58.5968 65.3053C55.1663 67.4064 51.4488 68.684 47.4442 69.1404C46.4184 69.2557 45.3878 69.211 44.1879 69.3028Z" fill="white"/>
<path d="M44.4632 14.9785C51.2982 15.0938 57.3051 17.3573 62.4531 21.863C62.6719 22.0559 63.0978 22.2371 62.9731 22.5524C62.8743 22.7994 62.4437 22.6206 62.1661 22.663C61.2532 22.8065 60.5332 22.51 59.7873 21.9265C56.1545 19.0937 52.0111 17.4067 47.4395 16.9126C41.1856 16.2373 35.3788 17.5549 30.1413 21.1336C29.5131 21.5642 28.8684 21.9712 28.3108 22.4912C27.9414 22.8347 27.6096 22.6277 27.2614 22.47C26.2308 22.0018 26.2214 21.9924 27.0779 21.2795C31.1601 17.8796 35.8446 15.8703 41.1174 15.2256C41.675 15.1573 42.2303 15.1173 42.7903 15.0938C43.3456 15.075 43.9032 15.0185 44.4632 14.9785Z" fill="white"/>
<path d="M35.8752 70.592C35.527 70.4814 35.3458 70.6202 35.2235 70.9567C34.8917 71.8602 34.5458 72.7589 34.1835 73.6507C33.8517 74.4648 33.0824 74.6154 32.4094 74.0342C32.2047 73.8554 32.16 73.7001 32.2918 73.4577C32.5859 72.9284 32.8729 72.399 33.1271 71.8508C33.2188 71.6531 33.5882 71.4131 33.1765 71.1825C32.8071 70.9731 32.5765 71.1119 32.4 71.5025C32.1718 72.0107 31.913 72.5166 31.6024 72.9754C31.3106 73.406 30.6613 73.3895 30.2519 72.9425C29.8331 72.4837 30.4636 72.4813 30.6071 72.3095C31.0989 71.7307 31.4471 71.112 31.2165 70.352C30.9883 69.6038 30.4072 69.2108 29.6425 69.0579C28.9719 68.9261 28.3131 68.9356 27.4308 69.1685C27.9531 68.4203 28.3602 67.8391 28.7696 67.258C28.9084 67.058 29.1201 66.8768 28.7578 66.665C28.4731 66.5003 28.2896 66.5121 28.0919 66.8062C27.619 67.5121 27.1108 68.1968 26.6238 68.8956C25.8779 69.9614 25.8802 69.9614 24.8826 69.0838C23.8262 68.1615 23.8262 68.1615 24.8497 67.218C25.6191 66.5051 25.6238 66.458 24.9391 65.6839C24.2497 64.9004 23.3792 64.7616 22.6921 65.3216C21.8427 66.018 21.7792 66.7168 22.4874 67.6391C22.5815 67.7591 22.7368 67.865 22.6309 68.0415C22.5345 68.2062 22.3533 68.1473 22.2027 68.1544C21.6357 68.1873 21.4075 67.6368 20.9839 67.4086C20.7298 67.9944 20.7298 67.9944 20.8922 68.2344C21.3769 68.9497 22.2333 69.2085 23.0192 68.825C23.325 68.6744 23.4874 68.7309 23.7109 68.9497C24.5556 69.7873 25.4967 70.5096 26.4449 71.2272C28.3084 72.6366 30.3436 73.7589 32.3883 74.8671C33.6094 75.533 34.4188 75.2083 34.9364 73.9189C35.294 73.0272 35.6446 72.1307 35.9928 71.2319C36.0822 71.0061 36.3128 70.7331 35.8752 70.592ZM23.925 66.985C23.6803 67.1192 23.5627 67.6015 23.1886 67.3521C22.8851 67.1521 22.6851 66.8062 22.8239 66.418C22.958 66.0321 23.2615 65.8086 23.6662 65.7639C24.0121 65.7921 24.3015 65.9074 24.4474 66.2204C24.6003 66.5403 24.2497 66.618 24.1227 66.8039C24.0709 66.8768 24.0027 66.9427 23.925 66.985ZM29.7836 71.8625C29.3954 72.1684 28.9837 72.0578 28.6072 71.7896C28.0755 71.4178 27.5437 71.0437 27.019 70.6625C26.9014 70.5802 26.6967 70.5378 26.7414 70.3402C26.7814 70.1661 26.9743 70.1426 27.1131 70.0861C27.6778 69.8602 28.2684 69.7308 29.0472 69.7144C29.0566 69.7144 29.2331 69.7285 29.4119 69.7497C29.8872 69.8085 30.3154 69.9967 30.4354 70.4837C30.5789 71.0814 30.2213 71.519 29.7836 71.8625Z" fill="white"/>
<path d="M59.7214 71.343C59.1591 70.9901 58.1991 71.1736 57.5544 71.7595C57.0556 72.2136 56.978 72.9171 57.3521 73.6065C57.7544 74.3523 57.7544 74.3524 56.9403 74.6418C56.7733 74.7029 56.6015 74.7523 56.4345 74.8206C56.1615 74.9312 56.0086 74.8417 55.9474 74.5594C55.7451 73.6488 55.138 73.1971 54.2487 73.0983C53.8416 73.0536 53.811 72.8983 53.9875 72.5759C54.1992 72.1807 54.3969 71.7783 54.5686 71.3642C54.6392 71.1948 54.9498 70.9478 54.5969 70.8184C54.3545 70.7313 53.9804 70.7054 53.8369 71.0536C53.4487 72.016 52.8158 72.8748 52.5687 73.9241C52.9311 74.0018 53.2557 73.8982 53.5828 73.8747C54.0416 73.8394 54.4863 73.8865 54.8533 74.1947C55.2957 74.5641 55.3145 75.1547 54.8933 75.2958C53.7028 75.6958 52.4769 75.9476 51.2511 76.2135C50.757 76.3217 50.5805 76.0935 50.517 75.6205C50.3664 74.51 50.1688 73.4065 49.997 72.3007C49.957 72.056 49.9853 71.783 49.5853 71.8701C49.2653 71.9407 49.1265 72.0842 49.1829 72.4254C49.3923 73.663 49.5618 74.9053 49.79 76.1405C49.91 76.797 50.3664 77.0723 51.0276 76.964C51.5805 76.8723 52.1311 76.7617 52.6793 76.6558C55.011 76.2088 57.1991 75.3594 59.3285 74.3429C59.8132 74.1124 60.3096 73.8653 60.4908 73.2912C60.6884 72.6583 60.3073 71.7101 59.7214 71.343ZM58.8344 73.6935C58.3497 73.7524 57.9332 73.2865 57.9379 72.7359C57.9426 72.1689 58.3262 71.9548 58.8108 71.9101C59.2908 71.8654 59.7167 72.3407 59.7308 72.9524C59.6955 73.4347 59.3073 73.6347 58.8344 73.6935Z" fill="white"/>
<path d="M76.4432 54.2674C76.4032 54.465 76.4244 54.705 76.3162 54.8509C75.5374 55.9097 75.4668 57.2579 74.8245 58.3849C74.4409 59.0602 74.4221 59.9284 73.921 60.5895C73.7327 60.8389 73.6033 61.1377 73.3916 61.366C72.9045 61.8906 72.5633 62.3283 73.2833 62.9988C73.6974 63.3847 73.4363 64.5094 72.9939 64.9258C72.7845 65.1258 72.5069 65.1211 72.3116 64.9941C72.1045 64.86 72.3351 64.6835 72.4104 64.5447C72.8292 63.7823 72.7586 63.3776 72.0551 62.8906C71.521 62.5212 70.9705 62.1706 70.4081 61.8483C70.0646 61.6507 70.067 61.4365 70.2411 61.1354C70.4599 60.7566 70.6505 61.0389 70.8387 61.1518C72.1728 61.9612 72.1775 61.9659 73.0269 60.6507C73.281 60.2554 73.5116 59.8437 73.7351 59.4296C74.0174 58.9096 73.8621 58.5213 73.3304 58.2884C73.001 58.1449 72.6669 58.0108 72.3257 57.9025C71.9775 57.7896 71.8904 57.6155 72.0057 57.2508C72.1398 56.8202 72.3704 57.0485 72.5728 57.119C72.9539 57.2532 73.3257 57.4061 73.6998 57.559C73.9821 57.6743 74.2645 58.0202 74.488 57.4626C74.6786 56.9873 75.0503 56.5026 74.4433 56.0979C74.0951 55.865 73.6692 55.7544 73.281 55.5803C72.9422 55.4297 72.361 55.4203 72.6269 54.8226C72.888 54.2321 73.2574 54.7826 73.561 54.8438C73.9068 54.9144 74.2551 55.0532 74.5609 55.232C74.975 55.4744 75.2668 55.4509 75.4785 54.9944C75.6832 54.5544 75.7985 54.1074 75.2621 53.8368C74.7445 53.578 74.1962 53.3756 73.6527 53.1709C73.3398 53.0533 73.161 52.9215 73.2904 52.538C73.4363 52.1051 73.6786 52.2933 73.921 52.3945C74.5209 52.6415 75.1303 52.8698 75.7232 53.138C76.2032 53.3498 76.4644 53.7215 76.4432 54.2674Z" fill="white"/>
<path d="M70.8599 64.7772C70.114 63.7749 69.1847 63.4643 67.9682 63.8761C67.6482 63.9843 67.5212 63.949 67.5 63.5914C67.4788 63.0996 67.4247 62.6079 67.373 62.1185C67.3565 61.9796 67.4436 61.7797 67.2389 61.7114C67.0718 61.6597 66.9589 61.8173 66.8224 61.8855C66.5777 62.0055 66.5612 62.2102 66.5918 62.4526C66.6883 63.2102 66.7847 63.9655 66.8553 64.7231C66.9071 65.2431 67.0412 65.4666 67.5518 65.0595C67.9541 64.7396 68.3941 64.4643 68.947 64.4784C69.3494 64.4878 69.6529 64.7043 69.8364 65.0007C70.0152 65.2925 69.6576 65.4784 69.4999 65.6548C68.7964 66.4383 68.0435 67.1795 67.3471 67.9653C66.9965 68.3606 66.7824 68.2453 66.5165 67.9018C66.1848 67.4759 65.8295 67.0736 65.4789 66.6642C65.366 66.5324 65.2648 66.3748 65.0483 66.3842C64.4319 66.403 63.366 67.563 63.3731 68.2171C63.3849 69.3959 64.6436 70.1723 65.6624 69.6429C66.0271 69.4547 66.2977 68.8829 66.8483 69.3182C66.8742 69.337 67.0271 69.21 67.1071 69.1371C68.4647 67.9559 69.6223 66.5818 70.8081 65.2384C70.9328 65.0972 71.0128 64.9819 70.8599 64.7772ZM65.0648 69.0029C64.5707 69.0006 64.286 68.6688 64.2342 68.203C64.1848 67.763 64.5236 67.5348 64.8201 67.3442C64.9942 67.3324 65.8718 68.2312 65.8318 68.3888C65.7377 68.7724 65.4507 69.0076 65.0648 69.0029Z" fill="white"/>
<path d="M21.0875 64.2962C21.7063 64.2092 22.1086 63.6798 22.6239 63.348C22.7556 63.2633 22.8615 63.1339 23.0027 63.0751C23.278 62.9622 23.4097 63.2022 23.5415 63.3669C23.7086 63.5739 23.5133 63.6798 23.3721 63.788C22.9486 64.1151 22.5345 64.4562 22.0992 64.7692C21.3675 65.2962 20.7345 65.275 20.0146 64.708C19.3816 64.2115 18.944 63.5645 18.657 62.8234C18.5205 62.4681 18.4029 62.3551 17.9864 62.4775C17.137 62.7269 16.3817 62.3104 15.9912 61.5293C15.8312 61.2093 15.9559 60.9693 16.177 60.8352C16.4382 60.6775 16.4806 61.0046 16.5817 61.1481C17.0335 61.7834 17.4476 61.9034 18.1276 61.5246C18.6946 61.2093 19.2452 60.8658 19.7863 60.5081C20.1087 60.2964 20.3416 60.2823 20.5581 60.6422C20.8122 61.0634 20.4051 61.0775 20.2193 61.1928C18.977 61.9528 18.9181 62.2281 19.8099 63.4398C20.1181 63.861 20.4687 64.2374 21.0875 64.2962Z" fill="white"/>
<path d="M45.9196 74.4179C45.9196 74.9331 45.9454 75.4484 45.9125 75.9613C45.8796 76.5048 46.0678 76.719 46.6372 76.7001C47.5407 76.6695 47.8489 76.5284 47.8466 75.9143C47.8442 75.3802 47.7666 74.8461 47.6983 74.3143C47.6536 73.9543 47.7007 73.6955 48.1383 73.6626C48.5995 73.6273 48.4795 73.9802 48.5101 74.2155C48.583 74.792 48.6606 75.3708 48.6842 75.9496C48.7171 76.6931 48.383 77.1119 47.6701 77.3307C47.0983 77.5072 46.5125 77.4601 45.9384 77.4013C45.3949 77.3448 45.1196 76.9566 45.1055 76.4249C45.0725 75.1731 45.0702 73.919 45.0419 72.665C45.0349 72.3191 45.1855 72.2015 45.5196 72.1803C45.9431 72.1544 45.8584 72.4532 45.8654 72.672C45.8796 73.2532 45.8702 73.8343 45.8702 74.4155C45.889 74.4179 45.9054 74.4179 45.9196 74.4179Z" fill="white"/>
<path d="M40.275 73.2517C40.2045 73.7858 40.1362 74.3105 40.0609 74.8375C39.9127 75.8798 40.1668 76.2327 41.1927 76.3998C43.2726 76.741 43.2726 76.741 43.5549 74.6493C43.5785 74.4728 43.6185 74.2963 43.6396 74.1175C43.6796 73.7928 43.9243 73.8281 44.1455 73.8234C44.4349 73.8187 44.4678 73.9975 44.4373 74.2281C44.3478 74.894 44.2914 75.5669 44.1643 76.2257C44.0231 76.9574 43.529 77.3551 42.7667 77.3057C41.9879 77.2539 41.2044 77.1574 40.4421 76.988C39.5762 76.7951 39.1292 76.1974 39.221 75.3151C39.2986 74.5646 39.0727 73.6328 40.0821 73.254C40.1245 73.2399 40.1715 73.2517 40.275 73.2517Z" fill="white"/>
<path d="M12.2243 32.6464C11.796 32.4299 11.3443 32.3147 11.0619 32.31C9.9961 32.2982 9.61494 32.557 9.30436 33.3899C9.17966 33.724 9.09495 34.0746 8.96555 34.4087C8.83143 34.7475 8.9679 34.9028 9.28319 34.9993C9.94904 35.1993 10.6102 35.4087 11.269 35.6228C12.6854 36.0792 12.6854 36.0816 13.1019 34.644C13.3677 33.724 13.0831 33.0864 12.2243 32.6464ZM11.4478 34.8746C11.109 34.764 10.7702 34.651 10.429 34.5405C9.7114 34.3052 9.60788 34.0322 10.0432 33.4158C10.4431 32.8511 11.0008 33.044 11.5043 33.2017C11.9584 33.3429 12.4642 33.4958 12.4972 33.9452C12.4972 34.9334 12.229 35.124 11.4478 34.8746Z" fill="white"/>
<path d="M25.0333 14.8232C25.4074 14.8279 25.6262 14.9832 25.7956 15.1997C26.125 15.6232 26.4426 16.0561 26.7626 16.4891C26.9132 16.6914 26.9697 16.8749 26.7179 17.0608C26.4638 17.2514 26.3203 17.1361 26.1721 16.9291C25.925 16.5832 25.6827 16.2303 25.4121 15.9032C25.2356 15.6915 25.0403 15.3832 24.6992 15.6585C24.398 15.9032 24.5462 16.1926 24.7062 16.4397C24.925 16.7785 25.1721 17.0985 25.4097 17.4232C25.565 17.6349 25.6968 17.8302 25.4003 18.0443C25.1062 18.2561 24.9697 18.082 24.8121 17.8584C24.5556 17.4914 24.2804 17.1385 24.0027 16.7879C23.8451 16.5902 23.6592 16.402 23.3839 16.6161C23.1439 16.802 23.1533 17.0538 23.2945 17.2796C23.5439 17.6773 23.8262 18.0514 24.0945 18.4372C24.2239 18.6231 24.3674 18.7878 24.0921 18.9972C23.8168 19.2066 23.6686 19.1149 23.4968 18.8725C23.0969 18.3055 22.6804 17.7502 22.271 17.1902C22.1628 17.0396 22.0357 16.7949 22.2781 16.7549C22.9769 16.6397 23.1251 15.6138 23.9768 15.7762C24.1627 15.8114 24.1509 15.5503 24.2121 15.4162C24.3909 15.0303 24.6921 14.8421 25.0333 14.8232Z" fill="white"/>
<path d="M21.2005 17.8977C20.8922 17.9024 20.6052 17.9801 20.4475 18.253C20.2664 18.5683 20.0946 18.8365 19.7111 18.9706C19.4335 19.0671 19.5417 19.3118 19.7205 19.5071C20.4264 20.2859 21.1322 21.0623 21.824 21.8576C22.0357 22.1047 22.2028 22.0882 22.4357 21.907C22.7204 21.6882 22.5486 21.5353 22.3934 21.3659C22.2122 21.1706 22.0357 20.9776 21.7981 20.7212C22.5769 20.4671 22.871 20.1847 22.911 19.7071C22.9792 18.8318 22.0781 17.8789 21.2005 17.8977ZM21.6263 20.1588C21.184 20.1706 20.6334 19.6059 20.6334 19.1495C20.6311 18.7848 20.8475 18.6248 21.1746 18.6083C21.591 18.5895 22.1651 19.1895 22.1698 19.7189C22.1604 19.9777 21.9651 20.1518 21.6263 20.1588Z" fill="white"/>
<path d="M35.7129 10.3804C35.7411 9.71928 35.9387 9.08871 36.6258 8.75696C37.1999 8.47932 37.7975 8.43932 38.3457 8.83225C38.5504 8.97813 38.8728 9.18754 38.6963 9.46047C38.5245 9.72164 38.2022 9.80869 37.9081 9.484C37.6493 9.1993 37.3105 9.23459 36.9787 9.3687C36.6187 9.51458 36.5105 9.79457 36.5105 10.164C36.5105 10.6651 36.5622 11.1498 36.8587 11.571C37.2658 12.1498 38.0351 12.0957 38.2893 11.4392C38.4304 11.0769 38.5787 10.9051 38.9575 11.0651C39.3833 11.2463 39.0845 11.5357 39.0092 11.731C38.6163 12.7498 37.2399 13.0133 36.4446 12.2415C35.9317 11.7451 35.7293 11.1239 35.7129 10.3804Z" fill="white"/>
<path d="M64.7119 13.999C65.6648 13.9943 66.4765 14.7778 66.3918 15.6249C66.3706 15.8249 66.3777 16.0766 66.0789 16.0272C65.8742 15.9943 65.5918 15.9637 65.613 15.6508C65.646 15.1355 65.4036 14.832 64.9236 14.7355C64.4107 14.632 64.0719 14.9496 63.7966 15.3166C63.6107 15.5637 63.4413 15.8319 63.3684 16.1472C63.2907 16.4837 63.3613 16.7778 63.6154 17.0037C63.8672 17.2248 64.1637 17.3189 64.4789 17.126C64.7801 16.9401 65.0413 16.9425 65.1871 17.2978C65.3636 17.7307 64.9542 17.7801 64.7213 17.8766C63.9519 18.1918 62.9213 17.6601 62.6602 16.8437C62.2767 15.6319 63.4507 14.0061 64.7119 13.999Z" fill="white"/>
<path d="M45.2608 9.28735C45.0349 9.03324 44.7502 8.90384 44.4255 8.9556C44.049 9.01913 43.7055 9.20971 43.3056 8.9956C43.1385 8.90384 42.9738 9.0356 42.9714 9.27559C42.9691 10.3908 42.9573 11.5061 42.9503 12.6237C42.9479 12.8778 43.0726 12.9766 43.3197 12.9766C43.5785 12.979 43.6749 12.8566 43.6702 12.6096C43.6608 12.3202 43.6679 12.0331 43.6679 11.6896C44.4961 11.9931 44.9267 11.9508 45.2584 11.5861C45.7761 11.0143 45.7761 9.86145 45.2608 9.28735ZM44.3173 11.3226C43.762 11.3226 43.6749 10.8426 43.6702 10.3955C43.6679 9.95792 43.7902 9.54381 44.329 9.57205C44.8302 9.59793 44.8702 10.0167 44.8961 10.365C44.8467 10.8144 44.8726 11.3202 44.3173 11.3226Z" fill="white"/>
<path d="M51.8935 10.1991C51.6629 9.5921 51.223 9.41564 50.31 9.57563C50.2301 9.22035 50.3524 8.94036 50.39 8.65566C50.43 8.37567 50.2465 8.3098 50.0371 8.2698C49.823 8.22745 49.7054 8.3192 49.6701 8.54508C49.503 9.62975 49.3289 10.7144 49.1524 11.7967C49.1054 12.0861 49.256 12.2908 49.5054 12.2085C49.8442 12.0955 50.0536 12.192 50.3265 12.3732C50.6183 12.5591 50.9783 12.5096 51.2865 12.3167C51.8653 11.9614 52.1641 10.9121 51.8935 10.1991ZM51.2253 10.9615C51.1688 11.2885 51.1359 11.8179 50.5571 11.8226C50.0842 11.8273 49.9759 11.3991 49.9971 10.9921C50.0253 10.5544 50.1218 10.0909 50.6536 10.0627C51.143 10.0368 51.2653 10.4203 51.2253 10.9615Z" fill="white"/>
<path d="M46.8537 9.09554C46.5619 9.19907 46.1714 9.38494 46.3008 9.72376C46.4184 10.032 46.7855 9.92845 47.0396 9.72846C47.0725 9.70023 47.1172 9.6814 47.1596 9.66964C47.4207 9.60376 47.6984 9.61788 47.7666 9.90492C47.8254 10.1661 47.5407 10.1896 47.3549 10.2367C47.2043 10.272 47.0466 10.279 46.8937 10.3143C46.2278 10.4673 45.9502 10.8367 46.0843 11.3872C46.2043 11.8954 46.7125 12.1378 47.3172 11.9684C47.4654 11.926 47.6631 11.7849 47.7407 11.8343C48.6936 12.4507 48.4584 11.686 48.4748 11.2178C48.4795 11.0837 48.4889 10.9519 48.4936 10.8155C48.5031 10.8155 48.5101 10.8155 48.5148 10.8178C48.5148 10.6367 48.5125 10.4602 48.5172 10.2814C48.5407 9.24612 47.8466 8.74496 46.8537 9.09554ZM47.2113 11.4955C46.9878 11.5002 46.7878 11.4084 46.7878 11.1684C46.7902 10.7284 47.1855 10.7708 47.4302 10.679C47.6231 10.6696 47.8066 10.6578 47.7854 10.8908C47.7548 11.2319 47.5948 11.4813 47.2113 11.4955Z" fill="white"/>
<path d="M59.5262 14.259C59.985 13.8096 60.345 13.4873 60.6673 13.132C60.9285 12.8426 61.1991 12.8685 61.4132 13.1038C61.6603 13.3744 61.3073 13.4779 61.1756 13.612C60.5026 14.2967 59.8156 14.9672 59.1309 15.6425C58.7309 16.0378 58.291 16.1084 57.7921 15.8166C57.5969 15.7013 57.5733 15.5625 57.6322 15.3696C57.6957 15.1602 57.8322 15.1719 58.0016 15.2214C58.5451 15.3814 58.7309 15.0943 58.7804 14.6096C58.8533 13.899 58.9309 13.1861 59.0274 12.4779C59.0509 12.3085 58.9733 12.0003 59.3003 12.0591C59.5286 12.1015 59.785 12.205 59.7403 12.5438C59.6697 13.0638 59.6086 13.5861 59.5262 14.259Z" fill="white"/>
<path d="M29.266 14.9018C28.9602 14.6454 28.6543 14.9136 28.5884 15.3206C28.5861 15.3418 28.5672 15.3606 28.5484 15.3771C28.4049 15.5465 28.2214 15.61 28.0096 15.5442C27.8684 15.4995 27.6826 15.443 27.6826 15.2642C27.6826 15.0454 27.9108 15.0101 28.0543 14.9277C28.3249 14.7701 28.6049 14.6313 28.8802 14.483C29.0731 14.3819 29.1131 14.2477 29.0213 14.0407C28.779 13.5113 28.0873 13.1607 27.5085 13.2925C26.9179 13.4289 26.5555 13.8901 26.5626 14.4995C26.572 15.1842 27.0638 15.97 27.6308 16.1559C28.172 16.3347 28.659 16.1677 29.0425 15.7771C29.2731 15.5418 29.5319 15.1206 29.266 14.9018ZM27.4943 14.643C27.2802 14.7065 27.2402 14.5065 27.2473 14.3513C27.2638 14.036 27.452 13.8877 27.7673 13.8783C27.9649 13.9183 28.2308 13.9913 28.1814 14.203C28.1108 14.5042 27.7626 14.563 27.4943 14.643Z" fill="white"/>
<path d="M18.9181 20.34C18.144 20.3282 17.4923 20.9612 17.4805 21.7258C17.4758 22.4717 18.2946 23.3093 19.0405 23.3117C19.7769 23.3117 20.464 22.634 20.4734 21.8929C20.4828 21.1047 19.7252 20.3471 18.9181 20.34ZM19.2146 22.5776C18.6005 22.5023 18.1487 21.9941 18.2029 21.5494C18.2476 21.1682 18.4805 21.0082 18.8499 21.0459C19.3275 21.0929 19.8405 21.6129 19.7863 22.0223C19.7346 22.4152 19.4899 22.6035 19.2146 22.5776Z" fill="white"/>
<path d="M67.2153 17.1208C66.3754 17.0808 65.606 17.7913 65.566 18.6431C65.533 19.3913 66.1142 20.043 66.8553 20.0901C67.6671 20.1371 68.4623 19.4077 68.5165 18.5654C68.5635 17.8478 67.94 17.1584 67.2153 17.1208ZM66.9024 19.4077C66.5471 19.4054 66.3095 19.2195 66.2718 18.8477C66.2248 18.4031 66.7001 17.8384 67.1424 17.8125C67.5424 17.7937 67.7635 18.0078 67.8247 18.3748C67.8435 18.803 67.3071 19.4124 66.9024 19.4077Z" fill="white"/>
<path d="M42.2867 11.6124C42.1902 11.1089 42.1455 10.5983 42.082 10.0878C42.0349 9.70189 41.9949 9.27838 41.5267 9.19838C40.9762 9.10426 40.3997 9.04544 39.9621 9.52307C39.835 9.66189 39.6656 9.86894 39.8515 10.0478C39.9997 10.1913 40.2515 10.1866 40.4021 10.0313C40.6209 9.80071 40.8444 9.65248 41.1667 9.78424C41.2773 9.82894 41.3597 9.94659 41.322 10.0501C41.2138 10.3583 40.882 10.3089 40.6491 10.4124C40.235 10.596 39.7974 10.7371 39.7833 11.1301C39.7691 11.9253 40.3832 12.3559 41.0044 12.1089C41.322 11.9865 41.5808 11.8595 41.9408 11.9865C42.1761 12.0736 42.3526 11.9442 42.2867 11.6124ZM41.4585 11.036C41.4138 11.3983 41.2091 11.6006 40.8467 11.6077C40.5903 11.6171 40.4821 11.4101 40.5126 11.2077C40.5691 10.8124 40.9503 10.8101 41.2303 10.7348C41.4444 10.6807 41.4726 10.8666 41.4585 11.036Z" fill="white"/>
<path d="M14.123 30.1799C13.7607 30.1893 13.6995 30.5917 13.8807 30.9634C13.9818 31.1658 13.8289 31.3446 13.6454 31.4622C13.5065 31.5516 13.3301 31.594 13.203 31.4975C12.9795 31.3328 13.1536 31.1399 13.2195 30.9611C13.2689 30.8364 13.323 30.714 13.3748 30.5917C13.7395 29.7611 13.6524 29.6199 12.7442 29.5941C12.276 29.5752 11.9301 29.7635 11.6901 30.1729C11.156 31.0858 11.8713 32.1399 13.0971 32.2387C13.8924 32.3046 14.5065 31.7799 14.523 30.9987C14.53 30.6575 14.4712 30.1705 14.123 30.1799ZM12.8995 30.4717C12.8219 30.7375 12.8054 31.1117 12.5042 31.1916C12.2572 31.2575 12.1466 30.9752 12.1278 30.747C12.1066 30.4199 12.3254 30.2787 12.5866 30.2176C12.7748 30.2364 12.9654 30.2482 12.8995 30.4717Z" fill="white"/>
<path d="M17.4711 25.3038C17.4688 25.3038 17.4688 25.3015 17.4664 25.2944L17.2429 25.038C17.2123 25.038 17.177 25.0497 17.13 25.0709C16.9347 25.165 16.7653 25.3203 16.8547 25.6027C16.937 25.8662 16.8547 26.0803 16.6053 26.2191C16.4029 26.3273 16.203 26.292 16.05 26.1485C15.8924 26.005 16.0688 25.8732 16.1324 25.7462C16.3418 25.3368 16.7582 25.0544 16.8382 24.5674C16.7629 24.5109 16.6876 24.4545 16.6123 24.398C16.2877 24.1815 15.9441 24.0192 15.5418 24.1509C15.5394 24.1509 15.5324 24.1533 15.53 24.1533C15.4077 24.2027 15.2853 24.2498 15.163 24.3015C15.1606 24.3039 15.1583 24.3039 15.1536 24.3062C14.516 24.7392 14.3771 25.1415 14.6124 25.8921C14.7677 26.0756 14.8995 26.2944 15.0853 26.4379C15.5653 26.8073 16.0759 27.1602 16.7229 26.8497C17.33 26.5579 17.5723 26.0426 17.5417 25.3838L17.4711 25.3038ZM15.4689 25.7321C15.283 25.7603 15.1536 25.5015 15.1724 25.2874C15.1936 24.9839 15.3747 24.8168 15.6712 24.8027C15.8383 24.8215 16.083 24.8239 16.0335 25.0027C15.9441 25.3038 15.8336 25.6827 15.4689 25.7321Z" fill="white"/>
<path d="M30.9695 11.7174C31.3671 11.6939 31.6001 11.9292 31.7459 12.2515C31.9742 12.7598 32.1742 13.2821 32.393 13.795C32.4824 14.0021 32.5224 14.1691 32.2565 14.2844C32.0048 14.3926 31.8354 14.3597 31.7271 14.0868C31.5554 13.6515 31.3695 13.2209 31.1883 12.788C31.0683 12.5033 30.8636 12.3433 30.5578 12.4539C30.2613 12.5621 30.1554 12.828 30.2425 13.1103C30.3813 13.5574 30.5695 13.988 30.7366 14.4256C30.8166 14.635 30.9224 14.8326 30.6048 14.9691C30.2848 15.1079 30.1648 14.962 30.0589 14.6938C29.8048 14.0515 29.5319 13.4139 29.266 12.7762C29.2049 12.6304 29.1225 12.3974 29.3225 12.3927C29.8895 12.3739 30.2331 11.941 30.7036 11.7527C30.786 11.7151 30.8824 11.7269 30.9695 11.7174Z" fill="white"/>
<path d="M37.1764 71.0852C37.5387 71.0829 37.6893 71.2193 37.534 71.6593C37.0658 72.9863 36.6258 74.3251 36.1882 75.6615C36.0894 75.9651 36.007 76.2168 35.5976 76.0827C35.2094 75.9533 35.3106 75.7062 35.4 75.4404C35.84 74.1275 36.2752 72.8099 36.7176 71.497C36.7858 71.3017 36.7999 71.0264 37.1764 71.0852Z" fill="white"/>
<path d="M62.3967 72.4671C62.3779 72.733 62.199 72.7942 62.0437 72.8765C61.7896 73.0107 61.6767 72.8342 61.5685 72.6577C61.1473 71.973 60.7309 71.2883 60.312 70.6037C59.9756 70.0507 59.6556 69.4884 59.2956 68.952C59.0933 68.6484 59.1827 68.4861 59.4438 68.2955C59.7826 68.0461 59.8603 68.3214 59.9826 68.5237C60.7285 69.7355 61.4744 70.9448 62.2202 72.1566C62.2884 72.2695 62.3496 72.3871 62.3967 72.4671Z" fill="white"/>
<path d="M14.5936 28.1876C14.2948 27.837 14.0101 27.47 13.6878 27.1429C13.4337 26.8841 13.4878 26.6488 13.6948 26.4465C13.9772 26.1688 14.0784 26.5335 14.1936 26.6629C14.6713 27.1923 15.1183 27.7476 15.5842 28.2887C15.723 28.4511 15.8195 28.5876 15.6924 28.8181C15.5677 29.044 15.4171 29.1522 15.1607 29.1146C14.4101 29.004 13.6595 28.9028 12.9113 28.7828C12.7537 28.757 12.4972 28.757 12.5725 28.4887C12.6361 28.2582 12.7325 28.0158 13.0737 28.084C13.5513 28.1782 14.0337 28.2511 14.5136 28.3311C14.5419 28.2817 14.5677 28.2346 14.5936 28.1876Z" fill="white"/>
<path d="M33.7318 13.7635C33.353 13.7729 33.2071 13.5612 33.0683 13.3141C32.753 12.7565 32.8142 12.0012 32.1224 11.6271C31.9201 11.5189 32.2283 10.3495 32.4424 10.1825C32.553 10.0978 32.6589 10.0695 32.713 10.1989C32.8589 10.5378 32.9295 10.9095 33.4424 10.8954C33.5483 10.893 33.6282 11.1566 33.513 11.3565C33.1741 11.933 33.4753 12.7753 34.0941 12.98C34.3012 13.0483 34.4259 13.1894 34.3788 13.3659C34.2847 13.7071 33.9577 13.7188 33.7318 13.7635Z" fill="white"/>
<path d="M56.7122 13.6113C56.8086 13.3313 56.938 12.9736 57.051 12.6136C57.1404 12.3337 57.3757 12.0772 57.1145 11.7431C57.0133 11.6137 57.091 11.3949 57.3074 11.3219C57.7027 11.1855 57.8227 10.5667 58.378 10.7125C58.3968 10.7172 58.4203 10.7314 58.4298 10.7478C58.6062 11.0584 58.0745 11.3713 58.4721 11.7266C58.7262 11.9525 58.6697 12.0184 58.0933 12.256C57.8721 12.3478 57.4039 13.5736 57.5639 13.7548C57.7286 13.9454 57.9427 14.0795 57.7239 14.3477C57.578 14.5242 57.3945 14.4348 57.2274 14.383C56.9569 14.2983 56.7451 14.1454 56.7122 13.8324C56.7075 13.7877 56.7122 13.743 56.7122 13.6113Z" fill="white"/>
<path d="M15.6312 22C15.7441 22.0588 15.9112 22.1247 16.05 22.2282C16.8335 22.8188 17.6099 23.4211 18.3934 24.014C18.617 24.1835 18.7323 24.3246 18.5017 24.6046C18.2805 24.8728 18.104 24.7905 17.8829 24.647C16.9723 24.047 16.2618 23.1929 15.3159 22.6376C15.2077 22.5741 15.0783 22.4635 15.1724 22.3129C15.2618 22.1647 15.3653 22.0047 15.6312 22Z" fill="white"/>
<path d="M55.5521 9.76807C55.1945 10.8692 54.8416 11.9727 54.4769 13.0715C54.3851 13.3444 54.1687 13.2621 53.9734 13.1985C53.7452 13.1256 53.7428 12.968 53.8063 12.7727C54.1451 11.7351 54.4863 10.6974 54.8086 9.65278C54.8863 9.40102 55.011 9.33279 55.2486 9.39632C55.4369 9.45043 55.5898 9.52338 55.5521 9.76807Z" fill="white"/>
<path d="M63.5872 73.3024C63.5755 73.5448 63.4178 73.5918 63.2202 73.5918C62.952 73.5895 62.7261 73.6647 62.6532 73.9565C62.5967 74.18 62.7237 74.3424 62.879 74.4812C63.1143 74.6929 63.3167 74.5353 63.552 74.4506C63.7778 74.3706 64.0437 73.9612 64.2202 74.2436C64.4766 74.6529 63.9966 74.7847 63.7284 74.9518C63.3684 75.1753 62.9943 75.38 62.6249 75.5894C62.5308 75.6435 62.4179 75.7164 62.3167 75.6341C62.1967 75.5376 62.1873 75.34 62.2696 75.2694C62.6179 74.9635 62.3049 74.7753 62.1779 74.5447C61.9755 74.1777 61.9849 73.8106 62.2485 73.4789C62.5214 73.133 62.9002 73.0248 63.3261 73.0601C63.4696 73.0671 63.5778 73.1401 63.5872 73.3024Z" fill="white"/>
<path d="M56.5803 11.3727C56.3686 12.0221 56.1262 12.7844 55.8721 13.5444C55.7968 13.7726 55.6227 13.7538 55.4345 13.6738C55.2627 13.6009 55.1075 13.5515 55.1898 13.295C55.4345 12.5562 55.658 11.8104 55.8933 11.0669C55.9639 10.8457 56.1239 10.8269 56.3215 10.8927C56.5027 10.9516 56.665 11.0151 56.5803 11.3727Z" fill="white"/>
<path d="M53.684 10.3421C53.4605 11.1868 53.2699 11.895 53.0864 12.6056C53.0323 12.8126 52.9311 12.9185 52.7076 12.8597C52.51 12.8056 52.3005 12.7703 52.3758 12.4762C52.5711 11.7232 52.7617 10.9703 52.9594 10.2198C53.0182 9.99154 53.1852 9.97977 53.3805 10.0362C53.6087 10.0998 53.724 10.2292 53.684 10.3421Z" fill="white"/>
<path d="M17.5417 25.3868L17.4711 25.3068C17.4688 25.3068 17.4688 25.3044 17.4664 25.2973C17.4052 25.1915 17.3723 25.0385 17.2429 25.0409L16.8358 24.5703C17.0758 24.8385 17.6546 24.8127 17.5417 25.3868Z" fill="white"/>
<path d="M48.3312 72.4918C48.4018 72.8965 48.136 72.8659 47.9195 72.8941C47.5195 72.9435 47.5077 72.6635 47.4772 72.3859C47.4348 72.0024 47.7266 72.0141 47.9571 71.9883C48.4042 71.9365 48.2748 72.3106 48.3312 72.4918Z" fill="white"/>
<path d="M43.1456 71.8555C43.1244 72.1284 43.0797 72.3355 42.7573 72.3026C42.4609 72.272 42.3079 72.1473 42.3573 71.8249C42.3973 71.5661 42.4326 71.3473 42.7926 71.3802C43.1432 71.4132 43.1856 71.6085 43.1456 71.8555Z" fill="white"/>
<path d="M42.0491 71.6025C41.9973 71.9272 42.0185 72.1836 41.6679 72.1436C41.3785 72.1107 41.2021 72.0072 41.2656 71.6731C41.315 71.4096 41.3785 71.1954 41.7244 71.2378C42.0303 71.2778 42.0891 71.4496 42.0491 71.6025Z" fill="white"/>
<path d="M32.8094 69.8619C32.6165 69.7866 32.3294 69.789 32.3647 69.5278C32.3953 69.2902 32.4353 68.9537 32.7835 68.9419C32.9694 68.9349 33.2447 68.9984 33.2259 69.2501C33.207 69.5019 33.1129 69.7772 32.8094 69.8619Z" fill="white"/>
<path d="M70.9234 54.459C71.1611 54.5884 71.5258 54.546 71.5258 54.9037C71.5258 55.1037 71.4528 55.4001 71.1493 55.346C70.9305 55.306 70.6176 55.2872 70.594 54.9672C70.5799 54.7437 70.6693 54.5343 70.9234 54.459Z" fill="white"/>
<path d="M63.2296 66.4605C63.1755 66.7147 63.0108 66.8982 62.7849 66.8794C62.5049 66.8558 62.3143 66.597 62.2791 66.3476C62.2532 66.1617 62.4955 65.9853 62.679 65.9735C62.9896 65.9547 63.0861 66.2535 63.2296 66.4605Z" fill="white"/>
<path d="M71.9446 53.8786C71.8363 54.0574 71.8505 54.3798 71.5281 54.2857C71.3069 54.2221 70.9376 54.2504 71.0081 53.841C71.0411 53.6527 71.0999 53.3963 71.3634 53.4575C71.5916 53.5116 71.914 53.5186 71.9446 53.8786Z" fill="white"/>
<path d="M18.7699 64.8047C19.0193 64.8541 19.1675 65.0423 19.1605 65.2258C19.1487 65.527 18.8711 65.6823 18.6123 65.7105C18.3982 65.7341 18.2264 65.48 18.2358 65.3082C18.2523 65.0164 18.5393 64.9082 18.7699 64.8047Z" fill="white"/>
<path d="M68.1141 21.4627C67.8788 21.3945 67.6812 21.251 67.6882 21.018C67.6953 20.7921 67.8929 20.5945 68.1094 20.5639C68.3494 20.531 68.5353 20.7451 68.5588 20.9616C68.587 21.2415 68.3329 21.3568 68.1141 21.4627Z" fill="white"/>
<path d="M64.1142 65.7653C64.0295 66.0029 63.8578 66.1912 63.6413 66.1676C63.3966 66.1417 63.199 65.9112 63.166 65.6712C63.1331 65.4288 63.3566 65.2382 63.5754 65.2453C63.8648 65.2524 63.9754 65.5418 64.1142 65.7653Z" fill="white"/>
<path d="M34.2259 69.83C34.1012 70.0276 34.1012 70.3617 33.7741 70.3335C33.6 70.317 33.3106 70.2488 33.3694 69.9923C33.4212 69.7617 33.4612 69.4064 33.8376 69.4582C34.0141 69.4817 34.2447 69.55 34.2259 69.83Z" fill="white"/>
<path d="M19.3416 66.5948C19.0781 66.5689 18.9393 66.3759 18.9322 66.2018C18.9205 65.8842 19.2381 65.7736 19.4663 65.7101C19.6734 65.6513 19.831 65.896 19.8334 66.0842C19.8428 66.3995 19.551 66.4842 19.3416 66.5948Z" fill="white"/>
<path d="M56.9663 10.1639C56.891 10.378 56.8604 10.6345 56.5428 10.5757C56.3428 10.538 56.124 10.4886 56.1687 10.2086C56.204 9.98744 56.2487 9.73333 56.5757 9.81568C56.7569 9.86273 56.9992 9.87215 56.9663 10.1639Z" fill="white"/>
<path d="M53.9734 9.2525C53.9005 9.51131 53.8934 9.75131 53.5946 9.7019C53.3593 9.66425 53.157 9.59366 53.2041 9.27838C53.2394 9.04309 53.3241 8.88545 53.5923 8.95839C53.7758 9.01016 54.0158 9.02427 53.9734 9.2525Z" fill="white"/>
<path d="M70.5682 53.9742C70.4787 54.146 70.4693 54.4189 70.1799 54.3272C69.9894 54.2683 69.6905 54.2778 69.7141 53.9578C69.7282 53.746 69.8294 53.5507 70.0952 53.6048C70.3023 53.6495 70.5517 53.6754 70.5682 53.9742Z" fill="white"/>
<path d="M15.1653 24.3037C14.6265 24.7108 14.4806 25.2543 14.6124 25.8942C14.1818 25.3107 14.45 24.539 15.1653 24.3037Z" fill="white"/>
<path d="M16.6124 24.4003C16.2524 24.3203 15.8924 24.238 15.5324 24.158C15.97 23.8874 16.3253 23.9909 16.6124 24.4003Z" fill="white"/>
</svg>
