<svg width="192" height="33" viewBox="0 0 192 33" fill="none" xmlns="http://www.w3.org/2000/svg">
<g clip-path="url(#clip0_48_5460)">
<path fill-rule="evenodd" clip-rule="evenodd" d="M24.422 11.0742C22.8639 10.0328 21.0321 9.477 19.1582 9.477V0C22.906 0 26.5697 1.11163 29.6859 3.19433C32.8021 5.27701 35.2309 8.23723 36.6651 11.7006C38.0993 15.164 38.4746 18.975 37.7435 22.6517C37.0123 26.3284 35.2076 29.7057 32.5574 32.3565C29.9073 35.0073 26.5308 36.8125 22.855 37.5438C19.1792 38.2751 15.369 37.8997 11.9065 36.4652C8.44397 35.0306 5.48448 32.6013 3.4023 29.4843C1.3201 26.3673 0.20874 22.7027 0.20874 18.954H9.68345C9.68345 20.8284 10.2391 22.6606 11.2802 24.2191C12.3213 25.7776 13.8011 26.9923 15.5324 27.7096C17.2636 28.4269 19.1687 28.6146 21.0066 28.2488C22.8445 27.8832 24.5327 26.9806 25.8578 25.6553C27.1829 24.3298 28.0852 22.6412 28.4508 20.8029C28.8164 18.9645 28.6288 17.059 27.9117 15.3273C27.1945 13.5956 25.9801 12.1155 24.422 11.0742Z" fill="#999999"/>
<path fill-rule="evenodd" clip-rule="evenodd" d="M9.68344 5.00853e-06C9.68344 1.24454 9.43838 2.47689 8.96223 3.6267C8.48608 4.7765 7.78818 5.82123 6.90837 6.70126C6.02857 7.58128 4.98408 8.27935 3.83455 8.75561C2.68503 9.23187 1.45297 9.477 0.208741 9.477L0.20874 18.954C2.69721 18.954 5.16132 18.4638 7.46037 17.5112C9.75943 16.5587 11.8484 15.1625 13.608 13.4025C15.3676 11.6425 16.7634 9.55301 17.7157 7.25339C18.668 4.95377 19.1582 2.48907 19.1582 0L9.68344 5.00853e-06Z" fill="#999999"/>
<path d="M119.229 13.6973H114.632V28.3035H119.229V13.6973Z" fill="#999999"/>
<path d="M115.144 10.9625C115.624 11.4434 116.225 11.6838 116.946 11.6838C117.667 11.6838 118.258 11.4434 118.718 10.9625C119.18 10.4617 119.41 9.86055 119.41 9.1593C119.41 8.43802 119.18 7.83691 118.718 7.35607C118.258 6.87519 117.667 6.63477 116.946 6.63477C116.225 6.63477 115.624 6.87519 115.144 7.35607C114.682 7.83691 114.452 8.43802 114.452 9.1593C114.452 9.86055 114.682 10.4617 115.144 10.9625Z" fill="#999999"/>
<path d="M48.6779 28.3022V7.08398H53.3952V24.1547H62.7999V28.3022H48.6779Z" fill="#999999"/>
<path fill-rule="evenodd" clip-rule="evenodd" d="M71.2951 28.6346C69.7928 28.6346 68.4307 28.3041 67.2088 27.6429C66.0069 26.9617 65.0555 26.04 64.3543 24.8779C63.6533 23.7158 63.3027 22.4135 63.3027 20.9709C63.3027 19.5283 63.6533 18.236 64.3543 17.0939C65.0555 15.9518 66.0069 15.0502 67.2088 14.3891C68.4106 13.7078 69.7728 13.3672 71.2951 13.3672C72.8175 13.3672 74.1796 13.6978 75.3815 14.359C76.5833 15.0202 77.5349 15.9319 78.2359 17.0939C78.937 18.236 79.2876 19.5283 79.2876 20.9709C79.2876 22.4135 78.937 23.7158 78.2359 24.8779C77.5349 26.04 76.5833 26.9617 75.3815 27.6429C74.1796 28.3041 72.8175 28.6346 71.2951 28.6346ZM71.2951 24.4572C71.9562 24.4572 72.5371 24.3169 73.0379 24.0364C73.5386 23.7359 73.9192 23.3251 74.1796 22.8042C74.4601 22.2632 74.6003 21.6521 74.6003 20.9709C74.6003 20.2897 74.4601 19.6986 74.1796 19.1977C73.8992 18.6768 73.5086 18.2761 73.0078 17.9956C72.527 17.695 71.9562 17.5447 71.2951 17.5447C70.6542 17.5447 70.0833 17.695 69.5825 17.9956C69.0817 18.2761 68.6911 18.6768 68.4106 19.1977C68.1302 19.7187 67.9901 20.3197 67.9901 21.0009C67.9901 21.6621 68.1302 22.2632 68.4106 22.8042C68.6911 23.3251 69.0817 23.7359 69.5825 24.0364C70.0833 24.3169 70.6542 24.4572 71.2951 24.4572Z" fill="#999999"/>
<path fill-rule="evenodd" clip-rule="evenodd" d="M82.9284 34.0126C84.1503 34.5736 85.5625 34.8541 87.165 34.8541C88.7274 34.8541 90.1196 34.5435 91.3415 33.9224C92.5635 33.3013 93.5249 32.4398 94.226 31.3378C94.927 30.2358 95.278 28.9335 95.278 27.4308V13.6961H90.7706V14.6775C90.4353 14.3952 90.0546 14.1583 89.6289 13.9666C88.8476 13.5859 87.9562 13.3955 86.9547 13.3955C85.6126 13.3955 84.4207 13.7161 83.3791 14.3572C82.3374 14.9784 81.5162 15.8399 80.9152 16.9419C80.3143 18.0239 80.0139 19.246 80.0139 20.6085C80.0139 21.951 80.3143 23.1731 80.9152 24.2751C81.5162 25.3771 82.3374 26.2487 83.3791 26.8898C84.4207 27.5309 85.6126 27.8515 86.9547 27.8515C87.9362 27.8515 88.8276 27.6612 89.6289 27.2805C90.0169 27.0961 90.3675 26.8788 90.6805 26.6285V27.551C90.6805 28.5728 90.35 29.3642 89.6889 29.9253C89.048 30.4863 88.1566 30.7668 87.0148 30.7668C86.0934 30.7668 85.3021 30.6065 84.6411 30.2859C84.0001 29.9654 83.4191 29.4945 82.8983 28.8733L80.074 31.6984C80.775 32.7002 81.7266 33.4717 82.9284 34.0126ZM89.4786 23.3434C89.0178 23.6239 88.4671 23.7642 87.826 23.7642C87.185 23.7642 86.6241 23.6239 86.1434 23.3434C85.6826 23.0629 85.3221 22.6822 85.0618 22.2013C84.8013 21.7005 84.6711 21.1695 84.6711 20.6085C84.6711 20.0074 84.8013 19.4665 85.0618 18.9856C85.3221 18.5047 85.6927 18.1241 86.1734 17.8435C86.6542 17.563 87.205 17.4228 87.826 17.4228C88.4671 17.4228 89.0178 17.563 89.4786 17.8435C89.9593 18.1241 90.3198 18.5047 90.5603 18.9856C90.8207 19.4665 90.9509 20.0074 90.9509 20.6085C90.9509 21.2096 90.8207 21.7505 90.5603 22.2314C90.3198 22.6923 89.9593 23.0629 89.4786 23.3434Z" fill="#999999"/>
<path fill-rule="evenodd" clip-rule="evenodd" d="M104.953 28.6346C103.45 28.6346 102.088 28.3041 100.866 27.6429C99.6639 26.9617 98.7127 26.04 98.0115 24.8779C97.3104 23.7158 96.9598 22.4135 96.9598 20.9709C96.9598 19.5283 97.3104 18.236 98.0115 17.0939C98.7127 15.9518 99.6639 15.0502 100.866 14.3891C102.068 13.7078 103.43 13.3672 104.953 13.3672C106.474 13.3672 107.837 13.6978 109.038 14.359C110.241 15.0202 111.192 15.9319 111.893 17.0939C112.594 18.236 112.945 19.5283 112.945 20.9709C112.945 22.4135 112.594 23.7158 111.893 24.8779C111.192 26.04 110.241 26.9617 109.038 27.6429C107.837 28.3041 106.474 28.6346 104.953 28.6346ZM104.953 24.4572C105.613 24.4572 106.194 24.3169 106.695 24.0364C107.195 23.7359 107.576 23.3251 107.837 22.8042C108.117 22.2632 108.257 21.6521 108.257 20.9709C108.257 20.2897 108.117 19.6986 107.837 19.1977C107.556 18.6768 107.166 18.2761 106.665 17.9956C106.184 17.695 105.613 17.5447 104.953 17.5447C104.311 17.5447 103.74 17.695 103.24 17.9956C102.738 18.2761 102.348 18.6768 102.068 19.1977C101.787 19.7187 101.647 20.3197 101.647 21.0009C101.647 21.6621 101.787 22.2632 102.068 22.8042C102.348 23.3251 102.738 23.7359 103.24 24.0364C103.74 24.3169 104.311 24.4572 104.953 24.4572Z" fill="#999999"/>
<path fill-rule="evenodd" clip-rule="evenodd" d="M130.279 28.6029C129.298 28.6029 128.396 28.4126 127.575 28.0319C127.143 27.8315 126.752 27.5923 126.404 27.3143V34.4634H121.866V13.6961H126.463V14.7042C126.797 14.4313 127.167 14.1955 127.575 13.9966C128.396 13.5959 129.298 13.3955 130.279 13.3955C131.661 13.3955 132.883 13.7262 133.944 14.3874C135.026 15.0485 135.868 15.9501 136.469 17.0922C137.09 18.2343 137.4 19.5366 137.4 20.9992C137.4 22.4619 137.09 23.7642 136.469 24.9063C135.868 26.0483 135.026 26.9499 133.944 27.6111C132.883 28.2723 131.661 28.6029 130.279 28.6029ZM129.438 24.4554C130.099 24.4554 130.67 24.3051 131.15 24.0046C131.652 23.7041 132.042 23.2933 132.322 22.7724C132.603 22.2515 132.743 21.6604 132.743 20.9992C132.743 20.318 132.603 19.7169 132.322 19.196C132.042 18.675 131.652 18.2744 131.15 17.9938C130.67 17.6932 130.109 17.543 129.468 17.543C128.827 17.543 128.256 17.6932 127.756 17.9938C127.274 18.2744 126.894 18.675 126.614 19.196C126.333 19.7169 126.193 20.318 126.193 20.9992C126.193 21.6604 126.323 22.2515 126.584 22.7724C126.864 23.2933 127.254 23.7041 127.756 24.0046C128.256 24.3051 128.817 24.4554 129.438 24.4554Z" fill="#999999"/>
<path d="M141.899 28.3334C142.741 28.5539 143.592 28.664 144.453 28.664C146.276 28.664 147.718 28.2433 148.78 27.4017C149.861 26.5603 150.402 25.4282 150.402 24.0057C150.402 23.084 150.232 22.3426 149.891 21.7817C149.551 21.2007 149.111 20.7398 148.57 20.3992C148.029 20.0586 147.457 19.788 146.857 19.5877C146.256 19.3873 145.685 19.217 145.145 19.0768C144.604 18.9365 144.163 18.7762 143.822 18.5959C143.482 18.4156 143.311 18.1751 143.311 17.8746C143.311 17.5941 143.442 17.3837 143.702 17.2434C143.962 17.0832 144.352 17.0031 144.874 17.0031C145.415 17.0031 145.965 17.1132 146.526 17.3337C147.107 17.554 147.628 17.9348 148.088 18.4757L150.702 15.831C150.042 14.9894 149.181 14.3583 148.119 13.9376C147.077 13.4968 145.936 13.2764 144.694 13.2764C143.512 13.2764 142.48 13.4767 141.599 13.8774C140.717 14.2782 140.036 14.8292 139.555 15.5304C139.075 16.2116 138.834 17.0231 138.834 17.9648C138.834 18.8464 139.005 19.5777 139.345 20.1588C139.685 20.7197 140.127 21.1606 140.667 21.4811C141.208 21.8017 141.779 22.0522 142.38 22.2324C142.981 22.4128 143.552 22.5831 144.093 22.7434C144.633 22.8837 145.074 23.054 145.415 23.2543C145.776 23.4347 145.956 23.7051 145.956 24.0657C145.956 24.3463 145.805 24.5666 145.505 24.7269C145.224 24.8872 144.814 24.9674 144.273 24.9674C143.491 24.9674 142.77 24.8271 142.11 24.5466C141.448 24.2461 140.877 23.8354 140.397 23.3144L137.783 25.9591C138.284 26.5001 138.885 26.9811 139.586 27.4017C140.307 27.8024 141.078 28.113 141.899 28.3334Z" fill="#999999"/>
<path d="M158.785 28.6341C157.444 28.6341 156.252 28.3636 155.21 27.8226C154.188 27.2616 153.387 26.5002 152.807 25.5385C152.225 24.5568 151.935 23.4348 151.935 22.1724V13.6973H156.532V22.1124C156.532 22.6132 156.612 23.0441 156.773 23.4046C156.953 23.7653 157.213 24.0459 157.553 24.2462C157.895 24.4466 158.305 24.5467 158.785 24.5467C159.466 24.5467 160.007 24.3363 160.408 23.9156C160.809 23.4748 161.009 22.8737 161.009 22.1124V13.6973H165.606V22.1424C165.606 23.4247 165.316 24.5568 164.734 25.5385C164.154 26.5002 163.353 27.2616 162.331 27.8226C161.309 28.3636 160.128 28.6341 158.785 28.6341Z" fill="#999999"/>
<path d="M172.488 13.6961H167.891V28.3024H172.488V19.767C172.488 19.2661 172.589 18.8454 172.789 18.5047C173.009 18.1641 173.3 17.9036 173.66 17.7234C174.021 17.5229 174.432 17.4228 174.892 17.4228C175.553 17.4228 176.104 17.6331 176.544 18.0539C177.006 18.4546 177.236 19.0257 177.236 19.767V28.3024H181.833V19.767C181.833 19.2661 181.934 18.8454 182.134 18.5047C182.354 18.1641 182.644 17.9036 183.005 17.7234C183.365 17.5229 183.777 17.4228 184.237 17.4228C184.898 17.4228 185.449 17.6331 185.889 18.0539C186.35 18.4546 186.58 19.0257 186.58 19.767V28.3024H191.178V19.2561C191.178 18.0339 190.918 16.992 190.397 16.1305C189.895 15.2488 189.205 14.5777 188.323 14.1169C187.462 13.6359 186.47 13.3955 185.348 13.3955C184.207 13.3955 183.175 13.646 182.254 14.1469C181.655 14.466 181.132 14.8779 180.684 15.3825C180.266 14.8547 179.758 14.4228 179.159 14.0868C178.358 13.626 177.446 13.3955 176.425 13.3955C175.343 13.3955 174.372 13.626 173.511 14.0868C173.135 14.2785 172.795 14.5081 172.488 14.7756V13.6961Z" fill="#999999"/>
</g>
<defs>
<clipPath id="clip0_48_5460">
<rect width="191.389" height="37.908" fill="white" transform="translate(0.20874)"/>
</clipPath>
</defs>
</svg>
