<svg width="188" height="33" viewBox="0 0 188 33" fill="none" xmlns="http://www.w3.org/2000/svg">
<g clip-path="url(#clip0_48_5447)">
<path d="M28.5512 28.3456H38.2474L14.2279 1.2168H4.53162L28.5512 28.3456Z" fill="#999999"/>
<path d="M19.2094 1.2168L42.3638 27.3684V1.2168H36.0977V9.47336L28.7874 1.2168L19.2094 1.2168Z" fill="#999999"/>
<path d="M0.472534 2.125V28.3455H6.7385V20.0889L14.0487 28.3455H23.6879L0.472534 2.125Z" fill="#999999"/>
<path d="M57.4844 24.2675H63.0987V28.0042H53.1985V8.13184H57.4844V24.2675Z" fill="#999999"/>
<path d="M70.7573 28.2304C69.3871 28.2304 68.1506 27.9002 67.0478 27.2396C65.9617 26.5791 65.1012 25.6354 64.4662 24.4088C63.8481 23.1821 63.5389 21.7478 63.5389 20.1059C63.5389 18.483 63.8563 17.058 64.4913 15.8314C65.1263 14.5857 65.9952 13.6328 67.0979 12.9722C68.2008 12.3117 69.4372 11.9814 70.8074 11.9814C72.1776 11.9814 73.414 12.3117 74.5169 12.9722C75.6197 13.6328 76.4885 14.5857 77.1235 15.8314C77.7585 17.058 78.0759 18.483 78.0759 20.1059C78.0759 21.7289 77.7502 23.1632 77.0984 24.4088C76.4635 25.6354 75.5862 26.5791 74.4667 27.2396C73.3639 27.9002 72.1274 28.2304 70.7573 28.2304ZM70.7573 24.0408C71.5761 24.0408 72.2695 23.7011 72.8376 23.0217C73.4224 22.3423 73.7148 21.3704 73.7148 20.1059C73.7148 18.8414 73.4308 17.8696 72.8627 17.1902C72.3113 16.5108 71.6262 16.1711 70.8074 16.1711C69.9719 16.1711 69.2785 16.5108 68.7272 17.1902C68.1757 17.8507 67.9 18.8227 67.9 20.1059C67.9 21.3704 68.1673 22.3423 68.7021 23.0217C69.2535 23.7011 69.9386 24.0408 70.7573 24.0408Z" fill="#999999"/>
<path d="M84.9113 11.9814C85.8972 11.9814 86.7578 12.2079 87.4929 12.6608C88.2449 13.1138 88.8213 13.7083 89.2223 14.4443V12.2079H93.5083V27.9757C93.5083 29.4288 93.2492 30.7404 92.7312 31.9104C92.23 33.0994 91.453 34.043 90.4003 34.7413C89.3644 35.4396 88.0694 35.7887 86.5154 35.7887C84.4434 35.7887 82.7642 35.2319 81.4776 34.1185C80.191 33.0239 79.4558 31.5331 79.2719 29.6458H83.5078C83.6414 30.2497 83.9589 30.7215 84.4602 31.0612C84.9615 31.4198 85.5797 31.5991 86.315 31.5991C87.2005 31.5991 87.9022 31.3066 88.4203 30.7215C88.9549 30.1554 89.2223 29.2401 89.2223 27.9757V25.7393C88.8045 26.4752 88.2281 27.0792 87.4929 27.551C86.7578 28.0039 85.8972 28.2304 84.9113 28.2304C83.7585 28.2304 82.714 27.9002 81.7784 27.2396C80.8426 26.5602 80.0991 25.6072 79.5477 24.3805C79.013 23.1349 78.7456 21.7007 78.7456 20.0776C78.7456 18.4546 79.013 17.0298 79.5477 15.803C80.0991 14.5764 80.8426 13.6328 81.7784 12.9722C82.714 12.3117 83.7585 11.9814 84.9113 11.9814ZM89.2223 20.1059C89.2223 18.8982 88.9216 17.9451 88.32 17.2468C87.7352 16.5485 87.0167 16.1993 86.1646 16.1993C85.3124 16.1993 84.5856 16.5485 83.984 17.2468C83.3991 17.9262 83.1067 18.8698 83.1067 20.0776C83.1067 21.2855 83.3991 22.2479 83.984 22.9651C84.5856 23.6634 85.3124 24.0124 86.1646 24.0124C87.0167 24.0124 87.7352 23.6634 88.32 22.9651C88.9216 22.2668 89.2223 21.3137 89.2223 20.1059Z" fill="#999999"/>
<path d="M102.223 28.2304C100.853 28.2304 99.6167 27.9002 98.5138 27.2396C97.4277 26.5791 96.5672 25.6354 95.9323 24.4088C95.314 23.1821 95.0049 21.7478 95.0049 20.1059C95.0049 18.483 95.3224 17.058 95.9573 15.8314C96.5923 14.5857 97.4611 13.6328 98.564 12.9722C99.6668 12.3117 100.903 11.9814 102.273 11.9814C103.644 11.9814 104.88 12.3117 105.983 12.9722C107.086 13.6328 107.955 14.5857 108.589 15.8314C109.224 17.058 109.542 18.483 109.542 20.1059C109.542 21.7289 109.216 23.1632 108.564 24.4088C107.929 25.6354 107.052 26.5791 105.933 27.2396C104.83 27.9002 103.593 28.2304 102.223 28.2304ZM102.223 24.0408C103.042 24.0408 103.735 23.7011 104.304 23.0217C104.888 22.3423 105.181 21.3704 105.181 20.1059C105.181 18.8414 104.897 17.8696 104.329 17.1902C103.777 16.5108 103.092 16.1711 102.273 16.1711C101.438 16.1711 100.745 16.5108 100.193 17.1902C99.6417 17.8507 99.366 18.8227 99.366 20.1059C99.366 21.3704 99.6334 22.3423 100.168 23.0217C100.719 23.7011 101.405 24.0408 102.223 24.0408Z" fill="#999999"/>
<path d="M113.219 10.5661C112.467 10.5661 111.849 10.3208 111.364 9.83012C110.897 9.32057 110.663 8.6978 110.663 7.96177C110.663 7.20689 110.897 6.5841 111.364 6.09343C111.849 5.58388 112.467 5.3291 113.219 5.3291C113.954 5.3291 114.556 5.58388 115.024 6.09343C115.508 6.5841 115.751 7.20689 115.751 7.96177C115.751 8.6978 115.508 9.32057 115.024 9.83012C114.556 10.3208 113.954 10.5661 113.219 10.5661ZM115.35 12.208V28.004H111.064V12.208H115.35Z" fill="#999999"/>
<path d="M121.989 14.4443C122.408 13.7083 122.984 13.1138 123.719 12.6608C124.454 12.2079 125.315 11.9814 126.301 11.9814C127.454 11.9814 128.498 12.3117 129.433 12.9722C130.37 13.6328 131.104 14.5764 131.639 15.803C132.191 17.0298 132.466 18.4546 132.466 20.0776C132.466 21.7007 132.191 23.1349 131.639 24.3805C131.104 25.6072 130.37 26.5602 129.433 27.2396C128.498 27.9002 127.454 28.2304 126.301 28.2304C125.332 28.2304 124.471 28.0039 123.719 27.551C122.984 27.0981 122.408 26.513 121.989 25.7958V35.534H117.704V12.2079H121.989V14.4443ZM128.105 20.0776C128.105 18.8698 127.805 17.9262 127.203 17.2468C126.618 16.5485 125.891 16.1993 125.022 16.1993C124.17 16.1993 123.443 16.5485 122.842 17.2468C122.257 17.9451 121.965 18.8981 121.965 20.1059C121.965 21.3137 122.257 22.2668 122.842 22.9651C123.443 23.6634 124.17 24.0124 125.022 24.0124C125.875 24.0124 126.601 23.6634 127.203 22.9651C127.805 22.2479 128.105 21.2855 128.105 20.0776Z" fill="#999999"/>
<path d="M139.652 28.2304C138.432 28.2304 137.347 27.9946 136.395 27.5227C135.441 27.0509 134.69 26.4092 134.139 25.5978C133.587 24.7674 133.278 23.8426 133.211 22.8235H137.447C137.497 23.3708 137.723 23.8143 138.124 24.154C138.524 24.4937 139.018 24.6636 139.602 24.6636C140.137 24.6636 140.546 24.5503 140.831 24.3239C141.132 24.0786 141.282 23.7671 141.282 23.3897C141.282 22.9367 141.072 22.6065 140.655 22.3988C140.237 22.1724 139.56 21.9271 138.625 21.6629C137.622 21.3986 136.786 21.125 136.118 20.842C135.45 20.5399 134.874 20.0776 134.389 19.4548C133.905 18.8132 133.662 17.9545 133.662 16.8787C133.662 15.9729 133.879 15.152 134.314 14.4159C134.765 13.6611 135.417 13.0666 136.269 12.6325C137.138 12.1985 138.165 11.9814 139.351 11.9814C141.106 11.9814 142.485 12.4721 143.487 13.4535C144.507 14.4348 145.091 15.737 145.242 17.3601H141.282C141.214 16.8127 140.997 16.3786 140.63 16.0578C140.279 15.737 139.811 15.5766 139.227 15.5766C138.726 15.5766 138.341 15.6898 138.073 15.9163C137.806 16.1238 137.673 16.4164 137.673 16.7938C137.673 17.2468 137.882 17.5865 138.299 17.8129C138.733 18.0395 139.402 18.2659 140.305 18.4923C141.34 18.7943 142.184 19.0962 142.836 19.3982C143.487 19.6812 144.056 20.1531 144.54 20.8136C145.042 21.4553 145.3 22.3234 145.317 23.4179C145.317 24.3428 145.083 25.1731 144.615 25.9091C144.164 26.6263 143.504 27.1924 142.636 27.6076C141.783 28.0228 140.789 28.2304 139.652 28.2304Z" fill="#999999"/>
<path d="M160.997 12.207V28.003H156.711V25.8517C156.277 26.55 155.684 27.1161 154.932 27.5502C154.197 27.9653 153.378 28.1728 152.476 28.1728C151.406 28.1728 150.462 27.9088 149.643 27.3803C148.824 26.833 148.19 26.0497 147.739 25.0306C147.288 24.0115 147.062 22.8133 147.062 21.4356V12.207H151.323V20.7844C151.323 21.8413 151.565 22.6622 152.049 23.2472C152.534 23.8324 153.185 24.1248 154.004 24.1248C154.84 24.1248 155.499 23.8324 155.984 23.2472C156.47 22.6622 156.711 21.8413 156.711 20.7844V12.207H160.997Z" fill="#999999"/>
<path d="M181.169 12.0381C182.907 12.0381 184.286 12.6326 185.304 13.8215C186.341 15.0104 186.859 16.6618 186.859 18.7755V28.0039H182.597V19.4265C182.597 18.4074 182.356 17.6243 181.871 17.077C181.403 16.5108 180.752 16.2277 179.916 16.2277C179.08 16.2277 178.421 16.5108 177.936 17.077C177.469 17.6243 177.235 18.4074 177.235 19.4265V28.0039H172.973V19.4265C172.973 18.4074 172.732 17.6243 172.246 17.077C171.778 16.5108 171.127 16.2277 170.291 16.2277C169.456 16.2277 168.796 16.5108 168.311 17.077C167.844 17.6243 167.61 18.4074 167.61 19.4265V28.0039H163.324V12.2079H167.61V14.1895C168.044 13.529 168.612 13.01 169.314 12.6326C170.016 12.2362 170.809 12.0381 171.695 12.0381C172.747 12.0381 173.684 12.2929 174.502 12.8024C175.338 13.312 175.989 14.0386 176.457 14.9822C176.942 14.114 177.602 13.4063 178.438 12.859C179.273 12.3117 180.184 12.0381 181.169 12.0381Z" fill="#999999"/>
</g>
<defs>
<clipPath id="clip0_48_5447">
<rect width="186.766" height="36.9834" fill="white" transform="translate(0.472412)"/>
</clipPath>
</defs>
</svg>
