<svg width="39" height="33" viewBox="0 0 39 33" fill="none" xmlns="http://www.w3.org/2000/svg">
<path fill-rule="evenodd" clip-rule="evenodd" d="M24.8168 11.0742C23.2587 10.0328 21.4268 9.477 19.5529 9.477V0C23.3008 0 26.9644 1.11163 30.0807 3.19433C33.1969 5.27701 35.6256 8.23723 37.0599 11.7006C38.4941 15.164 38.8694 18.975 38.1382 22.6517C37.4071 26.3284 35.6023 29.7057 32.9522 32.3565C30.3021 35.0073 26.9256 36.8125 23.2498 37.5438C19.574 38.2751 15.7638 37.8997 12.3013 36.4652C8.83874 35.0306 5.87925 32.6013 3.79707 29.4843C1.71488 26.3673 0.603516 22.7027 0.603516 18.954H10.0782C10.0782 20.8284 10.6339 22.6606 11.675 24.2191C12.7161 25.7776 14.1958 26.9923 15.9272 27.7096C17.6584 28.4269 19.5635 28.6146 21.4014 28.2488C23.2393 27.8832 24.9275 26.9806 26.2526 25.6553C27.5776 24.3298 28.48 22.6412 28.8455 20.8029C29.2112 18.9645 29.0236 17.059 28.3064 15.3273C27.5893 13.5956 26.3749 12.1155 24.8168 11.0742Z" fill="#999999"/>
</svg>
